<svg height="2500" viewBox="0 0 40 40" width="2500" xmlns="http://www.w3.org/2000/svg"><path d="m13.3 0-13.3 7.7v17.6c0 8.1 6.5 14.7 14.6 14.7 2.7 0 5.2-.7 7.4-1.9l10.8-6.2c4.3-2.3 7.2-6.7 7.2-11.9v-18.4l-2.6-1.5-11.4 6.1v19.2c0 .8-.1 1.6-.2 2.4-.2.8-.4 1.5-.7 2.2l-.3.6c-.4 0-2.9-.9-4.2-1.8-.6-.4-1.1-.8-1.6-1.3s-.9-1-1.3-1.6-.7-1.2-1-1.8-.5-1.3-.6-2-.1-1.4-.1-2.1v-18.4zm6.5 36.2c-.7.3-1.7.7-2.5.9s-1.5.2-2.3.2-1.6-.1-2.4-.3-1.5-.4-2.2-.7-1.4-.7-2-1.1c-1.8-1.1-2.7-2.1-3.4-3.2-.4-.6-.8-1.3-1.1-2s-.5-1.5-.7-2.3-.2-1.6-.2-2.4v-16.1l10-6.1v16.9c0 6.4 4.7 11.8 10.7 13.1-.2.3-.4.6-.7.8-1.1 1.1-2 1.8-3.2 2.3zm17-14c-.1.7-.4 1.4-.6 2-.3.6-.6 1.2-1 1.8s-1.6 2.1-3.2 3-3.1 1.2-4 1.4c.6-1.6 1-3.2 1-5v-17.7l8-4.6v16.9c0 .8 0 1.5-.2 2.2z" fill="#02b3e4"/></svg>