<!DOCTYPE svg PUBLIC "-//W3C//DTD SVG 20010904//EN" "http://www.w3.org/TR/2001/REC-SVG-20010904/DTD/svg10.dtd">
<svg version="1.0" xmlns="http://www.w3.org/2000/svg" width="500px" height="500px" viewBox="0 0 5000 5000" preserveAspectRatio="xMidYMid meet">
<g id="layer101" fill="#152216" stroke="none">
 <path d="M1263 4143 c131 -2 343 -2 470 0 128 1 21 2 -238 2 -258 0 -363 -1 -232 -2z"/>
 <path d="M2263 4133 c131 -2 343 -2 470 0 128 1 21 2 -238 2 -258 0 -363 -1 -232 -2z"/>
 <path d="M3273 4133 c131 -2 343 -2 470 0 128 1 21 2 -238 2 -258 0 -363 -1 -232 -2z"/>
 <path d="M2995 3700 c0 -217 1 -306 2 -197 2 108 2 286 0 395 -1 108 -2 19 -2 -198z"/>
 <path d="M4004 3805 c0 -159 2 -223 3 -142 2 82 2 212 0 290 -1 78 -3 12 -3 -148z"/>
 <path d="M2388 3240 c-190 -24 -374 -114 -509 -249 -151 -152 -227 -314 -250 -536 -29 -275 96 -582 305 -747 l55 -43 3 -350 3 -350 2 343 c2 188 6 342 9 342 3 0 18 -8 32 -19 133 -93 366 -145 553 -122 310 38 551 209 685 486 65 133 86 225 86 375 1 251 -77 444 -251 620 -186 187 -462 283 -723 250z m317 -65 c480 -132 742 -659 553 -1114 -44 -104 -117 -209 -201 -287 -270 -250 -656 -294 -975 -112 -56 33 -74 49 -81 72 -5 17 -10 23 -10 14 -2 -29 -14 -21 -82 50 -80 82 -121 141 -164 235 -57 123 -69 185 -69 347 0 136 2 151 32 240 102 306 355 523 667 574 59 9 270 -3 330 -19z"/>
 <path d="M1994 2610 c0 -209 2 -249 3 -107 3 225 4 227 24 217 42 -23 81 18 64 69 -8 25 -50 38 -70 21 -12 -10 -15 -1 -18 62 -1 40 -3 -78 -3 -262z m69 170 c6 -23 -16 -56 -31 -46 -13 8 -16 48 -5 59 13 13 31 7 36 -13z"/>
 <path d="M2990 2877 c0 -54 -1 -57 -25 -57 -14 0 -25 -4 -25 -10 0 -5 11 -10 25 -10 32 0 33 -18 1 -26 -14 -3 -27 -12 -30 -20 -6 -16 19 -44 40 -44 12 0 14 -44 14 -282 0 -155 2 -279 5 -277 7 8 9 768 2 776 -4 3 -7 -19 -7 -50z m0 -132 c0 -8 -7 -15 -15 -15 -16 0 -20 12 -8 23 11 12 23 8 23 -8z"/>
 <path d="M2507 2840 c3 -11 1 -20 -5 -20 -5 0 -15 -20 -21 -44 -14 -55 -14 -66 -1 -66 5 0 13 18 16 40 9 56 21 59 31 8 5 -24 12 -42 16 -40 10 3 10 9 -4 80 -7 35 -18 62 -25 62 -7 0 -10 -8 -7 -20z"/>
 <path d="M1920 2760 c0 -53 -2 -60 -20 -60 -11 0 -20 -4 -20 -10 0 -5 23 -10 50 -10 28 0 50 5 50 10 0 6 -9 10 -20 10 -18 0 -20 7 -20 60 0 33 -4 60 -10 60 -6 0 -10 -27 -10 -60z"/>
 <path d="M2118 2770 c-3 -47 -2 -50 22 -51 14 -1 41 -2 60 -3 55 -3 60 2 60 55 0 60 -18 65 -22 7 -2 -30 -8 -43 -18 -43 -10 0 -16 13 -18 43 -2 23 -7 42 -12 42 -5 0 -10 -19 -12 -42 -2 -30 -8 -43 -18 -43 -10 0 -16 13 -18 43 -4 58 -19 53 -24 -8z"/>
 <path d="M2298 2770 c-3 -56 -11 -51 87 -54 l50 -1 3 53 c2 30 -1 52 -7 52 -5 0 -11 -19 -13 -42 -2 -30 -8 -43 -18 -43 -10 0 -16 13 -18 43 -2 23 -7 42 -12 42 -5 0 -10 -19 -12 -42 -2 -30 -8 -43 -18 -43 -10 0 -16 13 -18 43 -4 58 -19 53 -24 -8z"/>
 <path d="M2642 2808 c-7 -7 -12 -36 -12 -65 0 -42 4 -54 20 -63 22 -12 70 -3 70 12 0 6 -7 7 -16 4 -28 -11 -54 12 -54 47 0 39 15 57 47 57 13 0 23 5 23 10 0 14 -64 12 -78 -2z"/>
 <path d="M2750 2770 c0 -47 2 -50 25 -50 14 0 25 5 25 10 0 6 -7 10 -15 10 -11 0 -15 11 -15 40 0 22 -4 40 -10 40 -5 0 -10 -22 -10 -50z"/>
 <path d="M2829 2796 c-24 -52 15 -101 61 -76 23 12 28 68 8 88 -21 21 -57 14 -69 -12z m59 -25 c2 -13 -1 -28 -7 -34 -17 -17 -45 15 -36 42 9 29 39 23 43 -8z"/>
 <path d="M3040 2810 c0 -5 11 -10 25 -10 14 0 25 -4 25 -10 0 -5 -11 -12 -25 -16 -18 -4 -25 -13 -25 -29 0 -26 26 -40 54 -29 26 10 19 22 -10 16 -20 -4 -25 -1 -22 9 3 8 13 16 24 18 47 9 33 61 -16 61 -17 0 -30 -4 -30 -10z"/>
 <path d="M2430 2653 c-24 -9 -81 -66 -91 -90 -5 -14 -4 -32 2 -45 10 -23 10 -23 5 1 -12 58 44 91 153 91 77 0 114 -11 150 -43 22 -20 23 -20 13 -2 -13 25 -60 69 -89 84 -22 11 -116 14 -143 4z"/>
 <path d="M2488 2403 c6 -2 18 -2 25 0 6 3 1 5 -13 5 -14 0 -19 -2 -12 -5z"/>
 <path d="M2297 2344 c-12 -12 -8 -24 9 -24 9 0 12 -5 8 -11 -4 -7 -1 -10 7 -7 19 6 18 42 -1 46 -9 1 -19 0 -23 -4z"/>
 <path d="M2670 2335 c-10 -12 -9 -15 4 -15 10 0 14 -4 11 -10 -3 -5 0 -10 8 -10 20 0 28 25 14 39 -15 15 -22 14 -37 -4z"/>
 <path d="M2170 2211 c0 -71 21 -133 61 -184 30 -37 30 -38 12 -55 -10 -9 -17 -16 -14 -15 2 2 10 -2 18 -8 10 -9 13 -8 13 4 0 24 19 31 38 14 9 -9 40 -25 67 -37 42 -19 64 -21 145 -18 81 3 105 8 155 32 39 20 60 25 63 18 2 -7 10 -12 18 -12 8 0 14 -5 14 -12 0 -9 3 -9 13 1 10 10 7 16 -12 31 l-25 18 36 53 c47 71 64 129 51 171 l-9 33 -27 -52 c-25 -49 -85 -103 -114 -103 -7 0 -54 14 -105 30 -115 38 -206 44 -237 16 -19 -18 -22 -18 -46 -2 -28 18 -81 87 -90 117 -12 38 -25 18 -25 -40z m200 -166 c19 -20 20 -25 7 -25 -17 0 -47 26 -47 41 0 16 16 10 40 -16z"/>
 <path d="M4004 2645 c0 -159 2 -223 3 -142 2 82 2 212 0 290 -1 78 -3 12 -3 -148z"/>
 <path d="M4004 1465 c0 -159 2 -223 3 -142 2 82 2 212 0 290 -1 78 -3 12 -3 -148z"/>
 </g>
<g id="layer102" fill="#35632d" stroke="none">
 <path d="M2979 4108 l24 -27 -5 -496 c-5 -439 -3 -496 10 -507 13 -11 14 -11 7 2 -10 15 -8 988 1 1025 4 16 3 17 -5 5 -8 -12 -13 -11 -33 5 -23 19 -23 19 1 -7z"/>
 <path d="M3985 4110 c10 -11 20 -20 23 -20 3 0 -3 9 -13 20 -10 11 -20 20 -23 20 -3 0 3 -9 13 -20z"/>
 <path d="M1996 4105 c-3 -9 -5 -215 -4 -458 l3 -442 5 455 c3 250 4 456 4 458 -1 2 -4 -4 -8 -13z"/>
 <path d="M994 3760 c0 -190 2 -267 3 -172 2 94 2 250 0 345 -1 94 -3 17 -3 -173z"/>
 <path d="M4004 3315 c0 -115 2 -161 3 -102 2 59 2 154 0 210 -1 56 -3 8 -3 -108z"/>
 <path d="M2403 3243 c9 -2 25 -2 35 0 9 3 1 5 -18 5 -19 0 -27 -2 -17 -5z"/>
 <path d="M2558 3243 c6 -2 18 -2 25 0 6 3 1 5 -13 5 -14 0 -19 -2 -12 -5z"/>
 <path d="M2558 3193 c6 -2 18 -2 25 0 6 3 1 5 -13 5 -14 0 -19 -2 -12 -5z"/>
 <path d="M994 2600 c0 -190 2 -267 3 -172 2 94 2 250 0 345 -1 94 -3 17 -3 -173z"/>
 <path d="M2998 2893 c5 -83 9 -90 11 -20 0 37 -2 67 -7 67 -4 0 -6 -21 -4 -47z"/>
 <path d="M1390 2915 c-14 -16 -3 -20 19 -6 8 5 9 11 3 15 -5 3 -15 -1 -22 -9z"/>
 <path d="M1564 2915 c21 -16 32 -13 21 4 -3 6 -14 11 -23 11 -15 -1 -15 -2 2 -15z"/>
 <path d="M3107 2919 c14 -18 8 -30 -12 -23 -7 3 -15 -3 -19 -12 -11 -28 3 -29 30 -3 24 24 24 26 7 40 -16 12 -17 12 -6 -2z"/>
 <path d="M2390 2905 c-14 -16 -3 -20 19 -6 8 5 9 11 3 15 -5 3 -15 -1 -22 -9z"/>
 <path d="M2564 2905 c21 -16 32 -13 21 4 -3 6 -14 11 -23 11 -15 -1 -15 -2 2 -15z"/>
 <path d="M3400 2905 c-14 -16 -3 -20 19 -6 8 5 9 11 3 15 -5 3 -15 -1 -22 -9z"/>
 <path d="M3574 2905 c21 -16 32 -13 21 4 -3 6 -14 11 -23 11 -15 -1 -15 -2 2 -15z"/>
 <path d="M1066 2893 c-10 -25 3 -29 24 -7 20 19 20 20 1 21 -11 1 -22 -5 -25 -14z"/>
 <path d="M1260 2895 c7 -8 16 -15 21 -15 5 0 6 7 3 15 -4 8 -13 15 -21 15 -13 0 -13 -3 -3 -15z"/>
 <path d="M1735 2899 c-11 -17 1 -21 15 -4 8 9 8 15 2 15 -6 0 -14 -5 -17 -11z"/>
 <path d="M2066 2883 c-10 -25 3 -29 24 -7 20 19 20 20 1 21 -11 1 -22 -5 -25 -14z"/>
 <path d="M2263 2883 c9 -9 19 -14 23 -11 10 10 -6 28 -24 28 -15 0 -15 -1 1 -17z"/>
 <path d="M2737 2893 c-10 -9 -9 -23 2 -23 5 0 11 7 15 15 5 15 -5 20 -17 8z"/>
 <path d="M3270 2885 c7 -8 16 -15 21 -15 5 0 6 7 3 15 -4 8 -13 15 -21 15 -13 0 -13 -3 -3 -15z"/>
 <path d="M3745 2889 c-11 -17 1 -21 15 -4 8 9 8 15 2 15 -6 0 -14 -5 -17 -11z"/>
 <path d="M1161 2866 c-7 -8 -8 -17 -3 -20 6 -3 13 1 16 10 9 23 2 28 -13 10z"/>
 <path d="M2161 2856 c-7 -8 -8 -17 -3 -20 6 -3 13 1 16 10 9 23 2 28 -13 10z"/>
 <path d="M1913 2760 c0 -36 2 -50 4 -32 2 17 2 47 0 65 -2 17 -4 3 -4 -33z"/>
 <path d="M2113 2775 c0 -27 2 -38 4 -22 2 15 2 37 0 50 -2 12 -4 0 -4 -28z"/>
 <path d="M2172 2783 c-1 -23 -8 -44 -14 -46 -10 -4 -10 -6 0 -6 17 -1 24 20 19 61 -3 30 -4 30 -5 -9z"/>
 <path d="M2263 2780 c0 -25 2 -35 4 -22 2 12 2 32 0 45 -2 12 -4 2 -4 -23z"/>
 <path d="M2293 2775 c0 -27 2 -38 4 -22 2 15 2 37 0 50 -2 12 -4 0 -4 -28z"/>
 <path d="M2352 2783 c-1 -23 -8 -44 -14 -46 -10 -4 -10 -6 0 -6 17 -1 24 20 19 61 -3 30 -4 30 -5 -9z"/>
 <path d="M2443 2775 c0 -27 2 -38 4 -22 2 15 2 37 0 50 -2 12 -4 0 -4 -28z"/>
 <path d="M2742 2768 c-2 -49 1 -58 16 -58 11 0 13 3 5 8 -6 4 -13 30 -16 57 l-3 50 -2 -57z"/>
 <path d="M2382 2773 c-2 -35 13 -52 31 -34 9 9 8 11 -5 6 -13 -5 -17 0 -21 27 l-4 33 -1 -32z"/>
 <path d="M2650 2746 c0 -19 3 -37 8 -40 4 -2 6 13 4 35 -5 48 -12 51 -12 5z"/>
 <path d="M2622 2740 c0 -19 2 -27 5 -17 2 9 2 25 0 35 -3 9 -5 1 -5 -18z"/>
 <path d="M2796 2725 c-3 -8 -1 -15 4 -15 6 0 10 7 10 15 0 8 -2 15 -4 15 -2 0 -6 -7 -10 -15z"/>
 <path d="M3068 2733 c6 -2 18 -2 25 0 6 3 1 5 -13 5 -14 0 -19 -2 -12 -5z"/>
 <path d="M3102 2724 c-7 -8 -8 -14 -3 -14 10 0 25 19 20 25 -2 1 -10 -3 -17 -11z"/>
 <path d="M2123 2713 c9 -2 23 -2 30 0 6 3 -1 5 -18 5 -16 0 -22 -2 -12 -5z"/>
 <path d="M3002 2500 c-1 -118 -4 -307 -6 -420 -4 -192 -4 -197 5 -75 5 72 8 261 6 420 -2 262 -3 270 -5 75z"/>
 <path d="M1874 2688 c2 -9 21 -13 56 -13 35 0 54 4 56 13 1 7 0 8 -3 2 -2 -5 -26 -10 -53 -10 -27 0 -51 5 -53 10 -3 6 -4 5 -3 -2z"/>
 <path d="M2460 2675 c-11 -13 -6 -15 38 -15 42 0 50 3 46 15 -4 9 -19 15 -39 15 -18 0 -38 -7 -45 -15z"/>
 <path d="M2369 2613 l-34 -38 38 34 c34 33 42 41 34 41 -2 0 -19 -17 -38 -37z"/>
 <path d="M2656 2505 c-9 -26 -7 -32 5 -12 6 10 9 21 6 23 -2 3 -7 -2 -11 -11z"/>
 <path d="M1672 2460 c0 -14 2 -19 5 -12 2 6 2 18 0 25 -3 6 -5 1 -5 -13z"/>
 <path d="M3312 2455 c0 -16 2 -22 5 -12 2 9 2 23 0 30 -3 6 -5 -1 -5 -18z"/>
 <path d="M1622 2440 c0 -19 2 -27 5 -17 2 9 2 25 0 35 -3 9 -5 1 -5 -18z"/>
 <path d="M3362 2445 c0 -16 2 -22 5 -12 2 9 2 23 0 30 -3 6 -5 -1 -5 -18z"/>
 <path d="M4004 2155 c0 -115 2 -161 3 -102 2 59 2 154 0 210 -1 56 -3 8 -3 -108z"/>
 <path d="M1672 2305 c0 -16 2 -22 5 -12 2 9 2 23 0 30 -3 6 -5 -1 -5 -18z"/>
 <path d="M3362 2300 c0 -19 2 -27 5 -17 2 9 2 25 0 35 -3 9 -5 1 -5 -18z"/>
 <path d="M1622 2300 c0 -14 2 -19 5 -12 2 6 2 18 0 25 -3 6 -5 1 -5 -13z"/>
 <path d="M3312 2295 c0 -16 2 -22 5 -12 2 9 2 23 0 30 -3 6 -5 -1 -5 -18z"/>
 <path d="M1994 2095 c0 -104 2 -146 3 -92 2 54 2 139 0 190 -1 51 -3 7 -3 -98z"/>
 <path d="M2163 2205 c0 -22 2 -30 4 -17 2 12 2 30 0 40 -3 9 -5 -1 -4 -23z"/>
 <path d="M2740 1986 c0 -3 9 -10 20 -16 11 -6 20 -8 20 -6 0 3 -9 10 -20 16 -11 6 -20 8 -20 6z"/>
 <path d="M2265 1969 c-4 -6 -4 -13 -1 -16 3 -4 6 -1 6 6 0 8 6 11 16 7 8 -3 12 -2 9 4 -8 13 -22 13 -30 -1z"/>
 <path d="M2473 1903 c15 -2 37 -2 50 0 12 2 0 4 -28 4 -27 0 -38 -2 -22 -4z"/>
 <path d="M1981 1774 c10 -10 19 -28 22 -39 4 -16 5 -16 6 5 1 16 -7 30 -21 39 -22 13 -22 13 -7 -5z"/>
 <path d="M2990 1776 c15 -15 12 -37 -7 -60 l-17 -21 21 20 c11 11 23 31 26 45 5 21 3 26 -13 26 -13 0 -16 -4 -10 -10z"/>
 <path d="M1390 1755 c-14 -16 -3 -20 19 -6 8 5 9 11 3 15 -5 3 -15 -1 -22 -9z"/>
 <path d="M1566 1756 c21 -15 30 -14 19 3 -3 6 -14 11 -23 11 -13 0 -13 -2 4 -14z"/>
 <path d="M994 1420 c0 -190 2 -267 3 -172 2 94 2 250 0 345 -1 94 -3 17 -3 -173z"/>
 <path d="M2390 1745 c-14 -16 -3 -20 19 -6 8 5 9 11 3 15 -5 3 -15 -1 -22 -9z"/>
 <path d="M2566 1746 c21 -15 30 -14 19 3 -3 6 -14 11 -23 11 -13 0 -13 -2 4 -14z"/>
 <path d="M3400 1745 c-14 -16 -3 -20 19 -6 8 5 9 11 3 15 -5 3 -15 -1 -22 -9z"/>
 <path d="M3576 1746 c21 -15 30 -14 19 3 -3 6 -14 11 -23 11 -13 0 -13 -2 4 -14z"/>
 <path d="M1068 1733 c-18 -22 -3 -25 22 -5 18 15 20 19 6 19 -9 0 -21 -6 -28 -14z"/>
 <path d="M1260 1735 c7 -8 17 -15 22 -15 6 0 5 7 -2 15 -7 8 -17 15 -22 15 -6 0 -5 -7 2 -15z"/>
 <path d="M1737 1743 c-4 -3 -7 -11 -7 -17 0 -6 5 -5 12 2 6 6 9 14 7 17 -3 3 -9 2 -12 -2z"/>
 <path d="M2070 1725 c-20 -24 -5 -28 21 -6 19 16 20 20 8 21 -9 0 -22 -7 -29 -15z"/>
 <path d="M2260 1725 c7 -8 16 -15 21 -15 5 0 6 7 3 15 -4 8 -13 15 -21 15 -13 0 -13 -3 -3 -15z"/>
 <path d="M2735 1729 c-11 -17 1 -21 15 -4 8 9 8 15 2 15 -6 0 -14 -5 -17 -11z"/>
 <path d="M3078 1723 c-18 -23 1 -28 23 -7 16 17 17 21 4 21 -8 0 -20 -6 -27 -14z"/>
 <path d="M3270 1725 c7 -8 16 -15 21 -15 5 0 6 7 3 15 -4 8 -13 15 -21 15 -13 0 -13 -3 -3 -15z"/>
 <path d="M3745 1729 c-11 -17 1 -21 15 -4 8 9 8 15 2 15 -6 0 -14 -5 -17 -11z"/>
 <path d="M1161 1706 c-7 -8 -8 -17 -3 -20 6 -3 13 1 16 10 9 23 2 28 -13 10z"/>
 <path d="M2161 1696 c-7 -8 -8 -17 -3 -20 6 -3 13 1 16 10 9 23 2 28 -13 10z"/>
 <path d="M3171 1696 c-7 -8 -8 -17 -3 -20 6 -3 13 1 16 10 9 23 2 28 -13 10z"/>
 <path d="M2998 1408 c1 -139 3 -314 5 -388 1 -74 4 39 5 253 1 213 -1 387 -5 387 -5 0 -7 -114 -5 -252z"/>
 <path d="M2000 1377 c0 -151 -3 -363 -6 -473 -4 -109 -3 -196 1 -191 11 9 23 937 13 937 -5 0 -8 -123 -8 -273z"/>
 <path d="M2408 1553 c6 -2 18 -2 25 0 6 3 1 5 -13 5 -14 0 -19 -2 -12 -5z"/>
 <path d="M2553 1553 c9 -2 23 -2 30 0 6 3 -1 5 -18 5 -16 0 -22 -2 -12 -5z"/>
 <path d="M2398 1503 c6 -2 18 -2 25 0 6 3 1 5 -13 5 -14 0 -19 -2 -12 -5z"/>
 <path d="M2568 1503 c6 -2 18 -2 25 0 6 3 1 5 -13 5 -14 0 -19 -2 -12 -5z"/>
 <path d="M4004 980 c0 -113 2 -159 3 -102 2 56 2 148 0 205 -1 56 -3 10 -3 -103z"/>
 </g>
<g id="layer103" fill="#515433" stroke="none">
 <path d="M2393 2595 c-37 -16 -54 -43 -46 -73 3 -12 -1 -30 -8 -39 -12 -15 -12 -16 5 -10 55 21 115 29 185 25 136 -8 233 -73 266 -178 7 -25 14 -37 14 -27 2 51 -53 130 -119 169 -19 12 -36 22 -38 23 -1 2 3 14 9 29 25 54 -48 96 -163 96 -40 -1 -87 -7 -105 -15z m212 -55 c14 -13 25 -26 25 -29 0 -3 -57 -5 -126 -3 -133 3 -145 10 -88 44 45 27 154 21 189 -12z"/>
 <path d="M2256 2430 c-37 -33 -77 -107 -75 -142 1 -18 3 -17 8 7 13 51 41 99 80 132 20 18 33 32 29 33 -4 0 -23 -14 -42 -30z"/>
 <path d="M2480 2416 c0 -2 11 -6 25 -8 13 -3 22 -1 19 3 -5 9 -44 13 -44 5z"/>
 <path d="M2289 2313 c13 -26 28 -30 28 -8 0 8 -3 13 -5 10 -3 -3 -12 1 -20 8 -13 10 -14 9 -3 -10z"/>
 <path d="M2428 2153 c6 -2 18 -2 25 0 6 3 1 5 -13 5 -14 0 -19 -2 -12 -5z"/>
 <path d="M2744 2138 l-19 -23 23 19 c12 11 22 21 22 23 0 8 -8 2 -26 -19z"/>
 <path d="M2330 2061 c0 -15 30 -41 47 -41 13 0 12 5 -7 25 -24 26 -40 32 -40 16z"/>
 </g>
<g id="layer104" fill="#408446" stroke="none">
 <path d="M1488 4143 c-263 -2 -478 -7 -478 -11 0 -4 212 -6 471 -4 342 2 475 -1 485 -9 12 -9 14 -101 14 -522 0 -281 3 -507 7 -504 4 4 7 236 7 517 1 487 0 509 -18 514 -10 2 -15 9 -11 15 3 6 5 10 3 9 -2 -2 -218 -4 -480 -5z"/>
 <path d="M2488 4133 c-263 -2 -478 -7 -478 -11 0 -4 212 -6 471 -4 342 2 475 -1 485 -9 12 -9 14 -102 16 -513 l3 -501 2 499 c3 434 1 501 -12 516 -8 9 -12 20 -8 23 3 4 4 6 2 5 -2 -2 -219 -4 -481 -5z"/>
 <path d="M3498 4133 c-263 -2 -478 -7 -478 -11 0 -4 212 -6 471 -4 342 2 475 -1 485 -9 12 -9 14 -108 14 -570 0 -308 3 -559 8 -559 4 0 5 251 4 557 -3 463 -6 561 -18 574 -8 9 -11 19 -7 22 3 4 4 6 2 5 -2 -2 -219 -4 -481 -5z"/>
 <path d="M1067 4083 c-11 -10 -8 -51 3 -58 17 -10 50 5 50 24 0 30 -35 53 -53 34z"/>
 <path d="M1221 4076 c-28 -33 -10 -86 28 -86 27 0 58 25 56 45 -3 39 -62 68 -84 41z"/>
 <path d="M1537 4072 c-10 -2 -22 -15 -28 -29 -22 -58 53 -100 86 -49 13 19 14 29 5 45 -13 25 -39 39 -63 33z"/>
 <path d="M1731 4062 c-12 -22 3 -42 31 -42 24 0 34 26 18 45 -17 20 -37 19 -49 -3z"/>
 <path d="M2064 4054 c-8 -31 7 -48 35 -39 23 7 28 34 9 53 -19 19 -37 14 -44 -14z"/>
 <path d="M2221 4066 c-17 -23 -19 -45 -5 -65 18 -25 51 -27 75 -5 27 24 7 71 -32 76 -16 3 -33 0 -38 -6z"/>
 <path d="M3074 4054 c-8 -31 7 -48 35 -39 23 7 28 34 9 53 -19 19 -37 14 -44 -14z"/>
 <path d="M3225 4056 c-8 -11 -15 -26 -15 -32 0 -17 34 -44 57 -44 20 0 50 27 48 45 -4 44 -66 66 -90 31z"/>
 <path d="M2731 4051 c-13 -23 8 -45 36 -39 22 4 30 38 11 49 -21 14 -37 10 -47 -10z"/>
 <path d="M3741 4052 c-12 -22 3 -42 31 -42 24 0 34 26 18 45 -17 20 -37 19 -49 -3z"/>
 <path d="M2510 4041 c-15 -28 -12 -46 8 -64 27 -24 59 -21 78 8 15 23 15 27 0 50 -21 31 -70 35 -86 6z"/>
 <path d="M3520 4035 c-24 -63 49 -106 86 -50 15 23 15 27 0 50 -23 35 -73 35 -86 0z"/>
 <path d="M1884 4015 c-9 -23 3 -45 24 -45 25 0 44 23 36 44 -8 20 -53 21 -60 1z"/>
 <path d="M3905 4016 c-22 -16 -15 -50 11 -54 25 -4 47 19 38 41 -8 22 -29 28 -49 13z"/>
 <path d="M2884 4005 c-9 -23 3 -45 24 -45 25 0 44 23 36 44 -8 20 -53 21 -60 1z"/>
 <path d="M1360 3951 c-12 -23 14 -56 37 -47 8 3 17 6 19 6 9 0 3 37 -8 48 -18 18 -36 15 -48 -7z"/>
 <path d="M2360 3941 c-12 -23 14 -56 37 -47 8 3 17 6 19 6 9 0 3 37 -8 48 -18 18 -36 15 -48 -7z"/>
 <path d="M3369 3938 c-10 -18 -8 -24 7 -35 21 -15 24 -16 43 -4 9 6 11 18 7 35 -8 32 -41 35 -57 4z"/>
 <path d="M1111 3931 c-24 -24 -26 -41 -8 -63 40 -50 115 4 79 58 -15 24 -50 26 -71 5z"/>
 <path d="M2110 3920 c-23 -23 -24 -33 -10 -61 12 -22 59 -26 78 -7 19 19 14 55 -10 72 -29 20 -34 20 -58 -4z"/>
 <path d="M3120 3920 c-23 -23 -25 -40 -7 -62 19 -24 43 -28 66 -12 27 20 27 59 -1 78 -29 20 -34 20 -58 -4z"/>
 <path d="M1660 3910 c-23 -23 -24 -33 -10 -61 13 -23 62 -26 84 -3 21 20 20 26 -5 58 -25 31 -42 33 -69 6z"/>
 <path d="M2672 3913 c-22 -9 -33 -40 -22 -67 7 -20 17 -26 39 -26 28 0 61 22 61 39 0 5 -9 20 -21 35 -20 26 -31 29 -57 19z"/>
 <path d="M3670 3900 c-23 -23 -24 -33 -10 -61 13 -23 62 -26 84 -3 21 20 20 26 -5 58 -25 31 -42 33 -69 6z"/>
 <path d="M1866 3864 c-19 -19 -17 -33 7 -48 24 -15 56 17 41 41 -15 24 -29 26 -48 7z"/>
 <path d="M1257 3864 c-23 -23 7 -69 37 -58 25 10 17 58 -9 62 -12 2 -24 0 -28 -4z"/>
 <path d="M1507 3863 c14 -3 23 -13 26 -29 4 -21 4 -21 3 3 -1 23 -6 28 -26 29 -20 1 -21 0 -3 -3z"/>
 <path d="M2865 3854 c-18 -19 -16 -33 7 -48 12 -7 21 -6 32 3 22 18 20 38 -3 51 -15 7 -24 6 -36 -6z"/>
 <path d="M3875 3854 c-18 -19 -16 -33 8 -48 26 -16 53 14 38 43 -14 25 -24 26 -46 5z"/>
 <path d="M2257 3854 c-23 -23 7 -69 37 -58 25 10 17 58 -9 62 -12 2 -24 0 -28 -4z"/>
 <path d="M2503 3853 c15 -2 27 -9 27 -14 0 -6 -5 -7 -11 -4 -6 4 -5 -3 3 -14 11 -18 14 -19 16 -6 6 29 -7 45 -35 44 l-28 -2 28 -4z"/>
 <path d="M3267 3854 c-23 -23 7 -69 37 -58 25 10 17 58 -9 62 -12 2 -24 0 -28 -4z"/>
 <path d="M3517 3853 c14 -3 23 -13 26 -29 4 -21 4 -21 3 3 -1 23 -6 28 -26 29 -20 1 -21 0 -3 -3z"/>
 <path d="M1020 3834 c-11 -12 -10 -18 3 -32 16 -15 18 -15 34 0 13 14 14 20 3 32 -7 9 -16 16 -20 16 -4 0 -13 -7 -20 -16z"/>
 <path d="M1461 3840 c0 -8 4 -22 9 -30 12 -18 12 -2 0 25 -6 13 -9 15 -9 5z"/>
 <path d="M2022 3828 c-17 -17 -15 -35 4 -42 25 -10 46 12 33 35 -11 22 -20 24 -37 7z"/>
 <path d="M2460 3828 c0 -7 4 -19 9 -27 7 -10 9 -7 8 12 -2 26 -17 39 -17 15z"/>
 <path d="M3030 3825 c-25 -30 10 -61 38 -33 7 7 8 17 1 30 -12 22 -23 23 -39 3z"/>
 <path d="M3471 3823 c-1 -12 4 -25 9 -28 12 -7 12 2 0 30 -8 19 -9 19 -9 -2z"/>
 <path d="M994 3215 c0 -115 2 -161 3 -102 2 59 2 154 0 210 -1 56 -3 8 -3 -108z"/>
 <path d="M3003 3150 c0 -36 2 -50 4 -32 2 17 2 47 0 65 -2 17 -4 3 -4 -33z"/>
 <path d="M2438 3193 c6 -2 18 -2 25 0 6 3 1 5 -13 5 -14 0 -19 -2 -12 -5z"/>
 <path d="M2503 3193 c9 -2 25 -2 35 0 9 3 1 5 -18 5 -19 0 -27 -2 -17 -5z"/>
 <path d="M1990 3025 c-7 -8 -9 -22 -6 -31 4 -9 3 -22 -1 -28 -5 -6 -6 -69 -3 -141 l6 -130 4 130 c3 114 4 122 10 65 l7 -65 1 54 c2 44 5 52 18 47 9 -3 24 -6 35 -6 19 0 19 -1 3 -26 -21 -31 -7 -49 30 -40 19 5 26 13 26 31 0 13 5 27 10 30 6 4 10 -6 10 -23 0 -16 3 -31 6 -35 8 -7 44 15 44 27 0 4 -7 3 -15 -4 -13 -11 -15 -9 -15 13 0 13 -7 30 -15 37 -13 11 -18 10 -29 -6 -8 -10 -12 -22 -10 -25 5 -8 -35 -44 -41 -37 -9 9 7 39 19 35 6 -3 12 6 12 18 1 18 -4 22 -29 23 -17 0 -41 6 -53 12 -18 10 -20 17 -14 51 8 44 8 45 -10 24z"/>
 <path d="M1879 3003 l-24 -28 28 24 c25 23 32 31 24 31 -2 0 -14 -12 -28 -27z"/>
 <path d="M3095 3010 c10 -11 20 -20 23 -20 3 0 -3 9 -13 20 -10 11 -20 20 -23 20 -3 0 3 -9 13 -20z"/>
 <path d="M2980 3011 c0 -20 13 -41 21 -35 15 9 10 44 -6 44 -8 0 -15 -4 -15 -9z"/>
 <path d="M997 2956 c-5 -11 5 -17 38 -22 43 -6 44 -7 30 -27 -18 -25 -19 -47 -4 -47 5 0 8 4 5 9 -9 14 5 43 18 38 6 -3 12 6 12 18 1 18 -4 22 -33 23 -20 1 -41 6 -48 12 -9 8 -14 6 -18 -4z"/>
 <path d="M2970 2950 c0 -6 -28 -10 -64 -10 -43 0 -66 -4 -69 -12 -3 -10 -7 -10 -18 -1 -18 15 -48 11 -59 -7 -7 -12 -10 -12 -15 2 -6 14 -24 16 -126 16 -65 0 -121 -4 -125 -9 -6 -10 9 -11 138 -9 101 1 113 -3 95 -31 -10 -16 -9 -21 3 -29 36 -23 79 5 51 33 -16 16 -14 27 7 27 11 0 27 -9 37 -20 19 -21 45 -27 45 -11 0 6 -5 13 -12 17 -7 4 -8 3 -4 -4 5 -8 2 -10 -9 -6 -27 11 -6 19 66 24 l69 5 0 -47 c0 -41 -3 -48 -20 -48 -11 0 -20 7 -20 15 0 19 -46 20 -57 1 -4 -7 -15 -16 -23 -19 -9 -3 -3 -6 13 -6 21 -1 30 -7 35 -23 l5 -22 8 22 c6 16 17 22 39 22 l30 0 0 70 c0 40 -4 70 -10 70 -5 0 -10 -4 -10 -10z m-216 -65 c-6 -16 -24 -21 -24 -7 0 11 11 22 21 22 5 0 6 -7 3 -15z"/>
 <path d="M3010 2946 c0 -11 12 -18 40 -22 38 -6 39 -7 25 -27 -8 -12 -15 -27 -15 -34 0 -19 59 -17 66 2 4 8 11 12 18 8 6 -3 3 3 -8 15 -10 12 -23 19 -27 16 -5 -3 -9 3 -9 13 0 14 -8 19 -32 21 -17 2 -38 8 -45 14 -10 8 -13 7 -13 -6z m90 -70 c-21 -22 -34 -18 -24 7 3 9 14 15 25 14 19 -1 19 -2 -1 -21z"/>
 <path d="M3980 2950 c0 -6 -28 -10 -64 -10 -43 0 -66 -4 -69 -12 -3 -10 -7 -10 -18 -1 -18 15 -48 11 -59 -7 -7 -12 -10 -12 -15 2 -5 13 -25 16 -126 16 -65 0 -122 -4 -125 -9 -6 -10 10 -11 138 -9 101 1 113 -3 95 -31 -10 -16 -9 -21 3 -29 36 -23 79 5 51 33 -16 16 -14 27 7 27 11 0 27 -9 37 -20 19 -21 45 -27 45 -11 0 6 -5 13 -12 17 -7 4 -8 3 -4 -4 5 -8 2 -10 -9 -6 -27 11 -6 19 66 24 l69 5 0 -552 c0 -410 3 -553 12 -553 8 0 9 27 5 98 -4 53 -7 310 -7 570 0 308 -3 472 -10 472 -5 0 -10 -4 -10 -10z m-220 -65 c-7 -9 -15 -13 -17 -11 -7 7 7 26 19 26 6 0 6 -6 -2 -15z"/>
 <path d="M1117 2938 c-2 -7 -5 -17 -6 -23 -2 -5 -10 -18 -18 -28 -19 -20 -13 -30 11 -21 9 3 16 17 16 29 0 13 5 27 10 30 6 4 10 -6 10 -23 0 -16 3 -31 6 -35 8 -7 44 15 44 27 0 4 -7 3 -15 -4 -13 -10 -15 -9 -15 12 0 36 -32 63 -43 36z"/>
 <path d="M1183 2935 c-3 -9 -3 -19 1 -22 3 -4 6 -1 6 5 0 7 7 12 15 12 11 0 12 -5 5 -25 -23 -59 42 -103 83 -57 22 24 21 38 -3 62 -11 11 -15 20 -8 20 7 0 27 -14 45 -32 18 -18 33 -26 33 -19 0 7 4 10 9 7 4 -3 17 1 27 9 19 15 19 15 0 8 -15 -5 -17 -3 -11 8 5 8 1 7 -12 -3 -25 -23 -29 -22 -29 1 0 18 7 20 53 18 29 -1 53 -5 53 -9 0 -16 2 -23 11 -41 10 -18 29 -14 29 6 0 7 -4 6 -10 -3 -6 -9 -10 -10 -10 -3 0 7 8 17 18 22 16 10 16 10 0 11 -11 0 -18 8 -18 20 0 23 -29 27 -48 8 -9 -9 -12 -9 -12 0 0 7 -16 12 -40 12 -30 0 -40 -4 -40 -16 0 -14 -2 -14 -16 -3 -9 7 -28 15 -41 17 -20 2 -24 -1 -20 -12 4 -10 1 -16 -7 -16 -8 0 -16 7 -20 15 -7 20 -35 19 -43 0z m101 -40 c3 -8 2 -15 -3 -15 -5 0 -14 7 -21 15 -10 12 -10 15 3 15 8 0 17 -7 21 -15z"/>
 <path d="M1494 2939 c-6 -10 9 -11 138 -9 101 1 113 -3 95 -31 -10 -16 -9 -21 3 -29 23 -15 33 -11 60 23 13 18 18 26 9 20 -9 -7 -19 -10 -22 -6 -14 13 -6 23 19 23 14 0 22 4 19 10 -8 13 -45 7 -54 -9 -6 -10 -10 -9 -14 2 -5 13 -28 15 -126 15 -67 0 -123 -4 -127 -9z m256 -44 c-7 -9 -15 -13 -17 -11 -7 7 7 26 19 26 6 0 6 -6 -2 -15z"/>
 <path d="M1887 2931 c-10 -12 -9 -13 3 -6 8 5 29 8 47 6 19 -1 33 2 33 9 0 16 -69 9 -83 -9z"/>
 <path d="M2183 2925 c-3 -9 -3 -19 1 -22 3 -4 6 -1 6 5 0 7 7 12 15 12 12 0 13 -5 4 -26 -7 -20 -6 -32 5 -49 8 -12 16 -40 19 -61 l4 -39 1 38 c2 29 6 37 20 37 21 0 52 29 52 48 0 7 -9 21 -20 32 -11 11 -15 20 -8 20 7 0 27 -14 45 -32 18 -18 33 -26 33 -19 0 7 3 10 8 7 4 -2 18 2 32 10 l25 15 -24 -7 c-18 -5 -22 -3 -16 7 5 8 -1 6 -12 -3 -25 -23 -28 -22 -30 2 -2 17 4 19 53 17 30 -1 54 -4 55 -7 5 -31 10 -44 20 -54 9 -8 10 -8 4 3 -5 9 -1 19 10 28 17 12 17 13 2 13 -10 0 -17 8 -17 20 0 23 -29 27 -48 8 -9 -9 -12 -9 -12 0 0 7 -16 12 -40 12 -30 0 -40 -4 -40 -16 0 -14 -2 -14 -16 -3 -9 7 -28 15 -41 17 -20 2 -24 -1 -20 -12 4 -10 1 -16 -7 -16 -8 0 -16 7 -20 15 -7 20 -35 19 -43 0z m102 -36 c12 -19 -5 -23 -22 -6 -16 16 -16 17 -1 17 9 0 20 -5 23 -11z"/>
 <path d="M3195 2930 c-4 -6 -11 -7 -17 -4 -7 4 -8 2 -4 -4 4 -7 17 -10 29 -7 18 5 22 2 22 -19 0 -13 -4 -22 -10 -19 -5 2 -1 -3 10 -12 11 -9 19 -21 18 -26 -2 -5 2 -9 8 -9 5 0 8 -4 5 -9 -10 -16 22 -6 44 14 25 23 25 40 0 65 -11 11 -15 20 -8 20 7 0 27 -14 45 -32 18 -18 33 -26 33 -19 0 7 4 10 9 7 4 -3 17 1 27 9 19 15 19 15 0 8 -15 -5 -17 -3 -11 8 5 8 1 7 -12 -3 -25 -23 -29 -22 -29 1 0 18 7 20 53 18 29 -1 53 -5 53 -9 0 -16 2 -23 11 -41 10 -18 29 -14 29 6 0 7 -4 6 -10 -3 -6 -9 -10 -10 -10 -3 0 7 8 17 18 22 16 10 16 10 0 11 -11 0 -18 8 -18 20 0 23 -29 27 -48 8 -9 -9 -12 -9 -12 0 0 7 -16 12 -40 12 -30 0 -40 -4 -40 -16 0 -14 -2 -14 -16 -3 -9 7 -28 15 -41 17 -20 2 -24 -1 -20 -12 4 -10 1 -16 -7 -16 -8 0 -16 7 -20 15 -6 17 -32 20 -41 5z m99 -45 c3 -8 2 -15 -3 -15 -5 0 -14 7 -21 15 -10 12 -10 15 3 15 8 0 17 -7 21 -15z"/>
 <path d="M1534 2910 c-30 -12 -40 -57 -18 -81 42 -46 100 -4 84 61 -4 19 -8 29 -9 22 -1 -9 -6 -10 -18 -4 -10 6 -28 6 -39 2z"/>
 <path d="M2534 2900 c-21 -8 -21 -9 -5 -58 9 -28 17 -47 19 -42 2 5 9 7 17 4 24 -9 45 36 35 76 -4 19 -8 29 -9 22 -1 -9 -6 -10 -18 -4 -10 6 -27 6 -39 2z"/>
 <path d="M3544 2900 c-30 -12 -40 -57 -18 -81 42 -46 100 -4 84 61 -4 19 -8 29 -9 22 -1 -9 -6 -10 -18 -4 -10 6 -28 6 -39 2z"/>
 <path d="M1881 2851 c-13 -24 6 -42 37 -35 19 6 21 2 25 -52 3 -57 3 -57 4 11 0 39 -2 76 -5 83 -7 19 -50 14 -61 -7z"/>
 <path d="M3894 2845 c-9 -23 3 -45 24 -45 11 0 25 7 32 15 16 19 -3 45 -32 45 -10 0 -21 -7 -24 -15z"/>
 <path d="M2028 2823 c6 -2 18 -2 25 0 6 3 1 5 -13 5 -14 0 -19 -2 -12 -5z"/>
 <path d="M2130 2823 c5 -2 10 -22 10 -44 0 -28 4 -39 15 -39 17 0 20 11 6 26 -5 5 -11 20 -13 33 -1 14 -9 26 -16 27 -7 1 -8 0 -2 -3z"/>
 <path d="M2187 2823 c6 -4 13 -26 16 -48 4 -40 4 -40 3 4 -1 30 -6 46 -16 48 -10 3 -11 2 -3 -4z"/>
 <path d="M2307 2823 c6 -4 13 -26 16 -48 4 -40 4 -40 3 4 -1 30 -6 46 -16 48 -10 3 -11 2 -3 -4z"/>
 <path d="M2372 2816 c7 -8 15 -12 17 -11 5 6 -10 25 -20 25 -5 0 -4 -6 3 -14z"/>
 <path d="M2413 2810 c-3 -11 -9 -20 -14 -20 -5 0 -9 -12 -9 -26 0 -38 24 -24 28 17 2 18 9 37 15 41 9 6 8 8 -1 8 -8 0 -16 -9 -19 -20z"/>
 <path d="M2673 2823 c9 -2 23 -2 30 0 6 3 -1 5 -18 5 -16 0 -22 -2 -12 -5z"/>
 <path d="M2757 2823 c6 -4 13 -24 15 -42 2 -20 9 -36 18 -38 10 -3 11 -2 3 4 -6 4 -13 24 -15 42 -2 20 -9 36 -18 38 -10 3 -11 2 -3 -4z"/>
 <path d="M3063 2823 c9 -2 23 -2 30 0 6 3 -1 5 -18 5 -16 0 -22 -2 -12 -5z"/>
 <path d="M2630 2805 c-6 -8 -10 -19 -8 -24 1 -6 8 1 15 14 13 28 11 31 -7 10z"/>
 <path d="M1362 2798 c-18 -18 -15 -36 7 -48 25 -13 51 -3 51 19 0 19 -19 41 -35 41 -6 0 -16 -5 -23 -12z"/>
 <path d="M2024 2785 c-3 -8 -4 -20 -1 -27 3 -7 6 -2 6 11 1 17 5 21 17 17 8 -3 12 -2 9 4 -9 15 -25 12 -31 -5z"/>
 <path d="M3050 2796 c0 -2 9 -6 20 -9 11 -3 18 -1 14 4 -5 9 -34 13 -34 5z"/>
 <path d="M3370 2781 c-12 -23 14 -56 37 -47 8 3 17 6 19 6 9 0 3 37 -8 48 -18 18 -36 15 -48 -7z"/>
 <path d="M1110 2770 c-23 -23 -24 -33 -10 -61 12 -22 59 -26 78 -7 19 19 14 55 -10 72 -29 20 -34 20 -58 -4z"/>
 <path d="M2812 2765 c0 -16 2 -22 5 -12 2 9 2 23 0 30 -3 6 -5 -1 -5 -18z"/>
 <path d="M1683 2765 c-33 -14 -48 -41 -37 -69 10 -27 22 -18 47 34 13 28 24 50 23 50 -1 -1 -15 -7 -33 -15z"/>
 <path d="M2093 2760 c1 -14 -5 -31 -13 -38 -8 -8 -10 -11 -3 -7 7 3 17 -4 23 -15 11 -20 43 -26 74 -14 25 10 8 24 -28 24 -29 0 -34 4 -43 38 -7 23 -11 28 -10 12z"/>
 <path d="M3136 2773 c-7 -8 -11 -9 -38 -12 -9 -1 -8 -4 2 -11 8 -5 15 -22 15 -37 0 -23 5 -29 28 -31 55 -6 79 51 35 82 -25 18 -31 19 -42 9z"/>
 <path d="M2498 2743 c-2 -17 -10 -29 -21 -31 -15 -3 -17 1 -11 22 8 32 -8 34 -21 4 -9 -20 -17 -23 -67 -23 -31 0 -54 -3 -51 -7 2 -5 -12 -8 -32 -8 -21 0 -38 -6 -41 -14 -8 -20 18 -91 43 -119 11 -13 23 -30 26 -38 3 -8 6 -2 6 13 1 34 54 96 98 114 17 8 34 18 38 24 8 13 75 13 75 0 0 -5 15 -17 33 -26 44 -23 97 -79 98 -107 0 -14 2 -17 6 -7 3 8 12 23 20 32 9 10 14 29 11 48 -3 16 -1 30 4 30 5 0 6 5 3 10 -3 6 -19 10 -35 10 -20 0 -35 9 -49 29 -12 16 -21 34 -21 40 0 11 -5 13 -32 15 -7 1 -16 6 -20 11 -5 6 -5 -5 -2 -22 5 -26 3 -33 -10 -33 -9 0 -16 8 -16 19 0 10 -6 24 -14 30 -12 10 -15 7 -18 -16z"/>
 <path d="M2670 2746 c-18 -22 -5 -46 25 -46 17 0 25 -5 25 -17 0 -16 1 -16 17 0 16 16 16 18 -4 44 -24 33 -45 39 -63 19z"/>
 <path d="M3682 2753 c-21 -8 -34 -51 -22 -74 23 -42 108 -11 94 35 -12 35 -41 52 -72 39z"/>
 <path d="M2901 2727 c-13 -21 -12 -21 5 -5 10 10 16 20 13 22 -3 3 -11 -5 -18 -17z"/>
 <path d="M2007 2713 c-4 -3 -7 -24 -7 -46 0 -22 3 -37 7 -34 3 4 12 2 20 -5 11 -9 17 -8 29 3 12 13 12 18 0 34 -12 17 -16 18 -31 5 -17 -14 -18 -13 -13 18 5 34 5 35 -5 25z"/>
 <path d="M1257 2704 c-23 -23 7 -69 37 -58 25 10 17 58 -9 62 -12 2 -24 0 -28 -4z"/>
 <path d="M1507 2703 c14 -3 23 -13 26 -29 4 -21 4 -21 3 3 -1 23 -6 28 -26 29 -20 1 -21 0 -3 -3z"/>
 <path d="M1854 2695 c-7 -18 12 -45 32 -45 8 0 14 5 14 12 0 6 -3 9 -6 5 -6 -6 -34 16 -34 27 0 2 12 7 28 9 l27 4 -28 2 c-16 0 -30 -5 -33 -14z"/>
 <path d="M2857 2688 c-8 -31 17 -57 40 -42 31 20 25 46 -13 58 -17 5 -23 2 -27 -16z"/>
 <path d="M2982 2278 c-1 -240 1 -443 4 -452 15 -40 24 5 22 117 l-2 122 -6 -95 c-3 -52 -7 94 -10 325 l-5 420 -3 -437z"/>
 <path d="M3875 2697 c-20 -16 -15 -44 11 -54 23 -9 51 23 38 44 -14 23 -27 26 -49 10z"/>
 <path d="M3481 2684 c-10 -12 -11 -20 -2 -37 8 -16 10 -17 6 -3 -7 23 11 46 37 46 15 0 19 -5 15 -20 -3 -11 -1 -23 5 -26 6 -4 8 6 6 22 -2 23 -9 30 -28 31 -14 2 -31 -4 -39 -13z"/>
 <path d="M1016 2673 c-4 -9 0 -23 8 -31 22 -22 50 2 35 29 -12 24 -35 25 -43 2z"/>
 <path d="M1461 2673 c-1 -27 15 -39 23 -17 3 8 2 12 -3 9 -5 -3 -12 3 -14 12 -4 14 -5 13 -6 -4z"/>
 <path d="M1982 2260 c-1 -234 2 -430 6 -437 6 -10 5 765 -2 832 -1 17 -3 -161 -4 -395z"/>
 <path d="M3032 2668 c-7 -7 -12 -17 -12 -24 0 -19 32 -26 48 -10 13 12 13 18 2 30 -15 19 -22 20 -38 4z"/>
 <path d="M2239 2423 l-24 -28 28 24 c25 23 32 31 24 31 -2 0 -14 -12 -28 -27z"/>
 <path d="M1673 2385 c0 -33 2 -45 4 -27 2 18 2 45 0 60 -2 15 -4 0 -4 -33z"/>
 <path d="M3313 2375 c0 -33 2 -45 4 -27 2 18 2 45 0 60 -2 15 -4 0 -4 -33z"/>
 <path d="M994 2055 c0 -115 2 -161 3 -102 2 59 2 154 0 210 -1 56 -3 8 -3 -108z"/>
 <path d="M2230 2015 c13 -14 26 -25 28 -25 3 0 -5 11 -18 25 -13 14 -26 25 -28 25 -3 0 5 -11 18 -25z"/>
 <path d="M2418 1903 c6 -2 18 -2 25 0 6 3 1 5 -13 5 -14 0 -19 -2 -12 -5z"/>
 <path d="M1010 1792 c0 -12 24 -22 51 -22 20 0 20 -1 2 -30 -16 -28 -16 -31 -1 -46 10 -10 23 -14 37 -9 22 7 28 34 11 51 -6 6 -3 14 10 22 18 11 20 10 20 -16 0 -16 3 -31 6 -35 8 -7 44 15 44 27 0 4 -7 3 -15 -4 -13 -11 -15 -9 -15 13 0 13 -7 30 -15 37 -12 10 -19 8 -35 -11 -20 -22 -21 -23 -15 -3 5 18 1 21 -30 22 -20 1 -40 4 -45 7 -6 4 -10 2 -10 -3z m75 -68 c-23 -17 -32 -10 -15 11 7 8 17 12 23 8 6 -4 3 -11 -8 -19z"/>
 <path d="M1836 1788 c6 -19 -10 -25 -21 -8 -8 13 -45 7 -54 -9 -6 -10 -10 -9 -14 2 -5 13 -28 15 -126 15 -67 0 -123 -4 -127 -9 -3 -5 5 -9 18 -9 26 -1 61 -24 51 -33 -3 -4 -15 -7 -25 -7 -11 0 -23 -11 -29 -26 -22 -60 52 -102 87 -49 15 23 15 27 -2 53 -10 15 -19 31 -19 35 0 4 -7 12 -15 17 -10 7 15 10 76 10 70 0 95 -4 104 -15 11 -13 11 -18 0 -28 -10 -10 -12 -8 -7 6 4 11 3 16 -3 12 -6 -3 -10 -17 -10 -30 0 -18 7 -26 24 -31 44 -11 62 19 30 50 -8 9 -12 20 -9 26 11 17 50 11 63 -10 13 -22 42 -27 42 -8 0 6 11 1 25 -12 l26 -24 -22 -16 c-26 -20 -22 -54 7 -58 11 -2 27 4 34 13 11 13 10 18 -4 33 -9 10 -14 21 -11 23 2 3 -18 27 -46 55 -27 27 -47 41 -43 32z m29 -38 c-3 -5 -13 -6 -21 -3 -12 4 -13 8 -3 14 15 9 32 2 24 -11z"/>
 <path d="M1950 1791 c-8 -6 -19 -7 -25 -3 -5 3 -4 -2 4 -11 10 -13 17 -15 27 -6 10 8 15 8 18 -2 13 -41 14 -43 15 -22 1 12 -4 25 -9 28 -6 4 -8 11 -5 16 8 12 -6 11 -25 0z"/>
 <path d="M2007 1781 c3 -11 8 -20 12 -19 3 0 19 0 35 -1 27 -1 28 -2 13 -25 -16 -24 -17 -50 -2 -63 4 -4 5 -2 1 5 -6 9 -2 11 16 7 33 -8 52 8 46 39 -3 15 -1 29 3 32 5 3 9 -8 9 -24 0 -16 3 -31 6 -35 8 -7 44 15 44 27 0 4 -7 3 -15 -4 -13 -11 -15 -9 -15 13 0 13 -7 30 -15 37 -13 11 -18 10 -29 -6 -8 -10 -12 -22 -10 -26 5 -8 -37 -40 -44 -33 -2 2 5 16 17 31 28 36 27 40 -14 41 -20 1 -42 6 -50 13 -11 9 -12 7 -8 -9z"/>
 <path d="M2975 1790 c-3 -5 -35 -10 -70 -10 -42 0 -65 -4 -68 -12 -3 -10 -7 -10 -18 -1 -17 14 -51 11 -56 -4 -2 -6 7 -8 22 -5 19 3 30 -1 41 -17 8 -11 22 -21 30 -21 17 0 19 16 2 26 -7 4 -8 3 -4 -4 5 -8 1 -10 -9 -5 -28 10 4 23 61 23 27 0 55 5 62 12 9 9 12 8 16 -3 13 -41 14 -43 15 -22 1 12 -4 25 -9 28 -6 4 -8 11 -5 16 4 5 4 9 1 9 -3 0 -8 -4 -11 -10z"/>
 <path d="M3014 1781 c0 -13 6 -16 26 -13 16 4 20 7 10 10 -8 3 -20 8 -25 13 -7 5 -11 1 -11 -10z"/>
 <path d="M1183 1775 c-3 -9 -3 -19 1 -22 3 -4 6 -1 6 5 0 16 18 15 35 -2 12 -12 12 -15 1 -19 -38 -15 -15 -87 28 -87 50 0 69 58 31 90 -8 7 -15 16 -15 21 0 18 25 8 57 -23 18 -18 33 -27 33 -20 0 7 -4 12 -8 12 -4 0 -8 9 -9 20 -1 15 4 20 24 20 21 0 23 -2 13 -15 -19 -23 -8 -38 15 -20 20 15 20 15 0 9 -16 -6 -18 -4 -8 6 14 16 63 23 63 9 0 -17 2 -24 11 -42 10 -18 29 -14 29 6 0 7 -4 6 -10 -3 -6 -9 -10 -10 -10 -3 0 7 8 17 18 22 16 10 16 10 0 11 -11 0 -18 8 -18 20 0 23 -29 27 -48 8 -9 -9 -12 -9 -12 0 0 7 -16 12 -40 12 -30 0 -40 -4 -40 -16 0 -14 -2 -14 -16 -3 -9 7 -28 15 -41 17 -20 2 -24 -1 -20 -12 4 -10 1 -16 -7 -16 -8 0 -16 7 -20 15 -7 20 -35 19 -43 0z m97 -40 c7 -8 8 -15 2 -15 -5 0 -15 7 -22 15 -7 8 -8 15 -2 15 5 0 15 -7 22 -15z"/>
 <path d="M3123 1766 c-31 -29 -29 -42 2 -22 25 16 25 16 25 -12 0 -16 3 -31 6 -35 8 -7 44 15 44 27 0 4 -7 3 -15 -4 -13 -10 -15 -9 -15 12 0 13 -6 31 -12 40 -12 14 -15 14 -35 -6z"/>
 <path d="M3978 1785 c-3 -3 -35 -6 -72 -6 -37 -1 -64 -5 -60 -10 3 -5 1 -9 -5 -9 -5 0 -13 4 -16 10 -8 13 -45 7 -55 -10 -7 -12 -10 -12 -15 2 -6 14 -24 16 -126 16 -65 0 -121 -4 -125 -9 -6 -10 9 -11 138 -9 96 1 116 -4 98 -25 -7 -8 -9 -24 -5 -35 5 -16 14 -20 33 -18 29 3 38 24 23 48 -8 12 -13 12 -30 -4 -12 -11 -21 -14 -21 -9 0 12 44 43 60 43 6 0 24 -10 40 -22 16 -12 33 -19 36 -15 11 11 -6 26 -24 21 -14 -5 -14 -4 -2 4 8 5 43 12 78 14 l62 4 0 -558 c0 -413 3 -558 11 -558 9 0 10 28 5 103 -3 56 -6 312 -6 570 -1 257 -4 467 -9 467 -4 0 -10 -2 -13 -5z"/>
 <path d="M2183 1765 c-3 -9 -3 -19 1 -22 3 -4 6 -1 6 5 0 7 7 12 15 12 12 0 15 -10 13 -39 -1 -22 4 -46 11 -55 34 -40 106 7 82 53 -6 11 -19 25 -29 30 -13 8 -13 10 -2 11 8 0 29 -14 47 -32 18 -18 33 -26 33 -19 0 7 4 10 9 7 4 -3 17 1 27 9 19 15 19 15 0 8 -15 -5 -17 -3 -11 8 5 8 1 7 -12 -3 -25 -23 -29 -22 -29 1 0 18 7 20 53 18 29 -1 53 -5 53 -9 0 -16 2 -23 11 -41 10 -18 29 -14 29 6 0 7 -4 6 -10 -3 -6 -9 -10 -10 -10 -3 0 7 8 17 18 22 16 10 16 10 0 11 -11 0 -18 8 -18 20 0 23 -29 27 -48 8 -9 -9 -12 -9 -12 0 0 7 -16 12 -40 12 -30 0 -40 -4 -40 -16 0 -14 -2 -14 -16 -3 -9 7 -28 15 -41 17 -20 2 -24 -1 -20 -12 4 -10 1 -16 -7 -16 -8 0 -16 7 -20 15 -7 20 -35 19 -43 0z m101 -40 c3 -8 2 -15 -3 -15 -5 0 -14 7 -21 15 -10 12 -10 15 3 15 8 0 17 -7 21 -15z"/>
 <path d="M2494 1769 c-3 -5 5 -9 18 -9 13 0 31 -7 41 -15 18 -13 18 -14 -4 -17 -14 -2 -26 -13 -32 -31 -18 -55 56 -93 87 -44 13 19 13 28 2 61 -7 21 -15 34 -17 28 -3 -7 -11 -6 -23 4 -18 12 -10 14 70 14 95 0 111 -5 93 -27 -15 -17 15 -53 43 -53 34 0 32 29 -4 64 l-34 33 -117 0 c-64 0 -120 -3 -123 -8z m256 -44 c-7 -9 -15 -13 -17 -11 -7 7 7 26 19 26 6 0 6 -6 -2 -15z"/>
 <path d="M3193 1765 c-3 -9 -3 -19 1 -22 3 -4 6 -1 6 5 0 7 7 12 15 12 18 0 18 1 4 -39 -9 -27 -8 -35 6 -51 22 -24 58 -26 76 -4 19 23 19 41 1 56 -12 10 -14 10 -8 1 10 -18 -9 -16 -24 2 -10 12 -9 15 4 15 10 0 14 5 11 10 -14 23 21 8 52 -22 18 -18 33 -26 33 -19 0 7 4 10 9 7 4 -3 17 1 27 9 19 15 19 15 0 8 -15 -5 -17 -3 -11 8 5 8 1 7 -12 -3 -25 -23 -28 -22 -30 2 -2 18 4 19 55 17 49 -3 57 -6 58 -24 1 -11 4 -25 8 -32 9 -13 26 -5 26 12 0 7 -4 6 -10 -3 -6 -9 -10 -10 -10 -3 0 7 8 17 18 22 16 10 16 10 0 11 -11 0 -18 8 -18 20 0 23 -29 27 -48 8 -9 -9 -12 -9 -12 0 0 7 -16 12 -40 12 -30 0 -40 -4 -40 -16 0 -14 -2 -14 -16 -3 -9 7 -28 15 -41 17 -20 2 -24 -1 -20 -12 4 -10 1 -16 -7 -16 -8 0 -16 7 -20 15 -7 20 -35 19 -43 0z"/>
 <path d="M3565 1740 c3 -5 -3 -10 -15 -10 -13 0 -24 -10 -31 -26 -13 -35 11 -74 46 -74 31 0 61 41 47 66 -5 9 -7 26 -5 38 4 15 2 17 -5 7 -7 -9 -12 -10 -16 -2 -4 6 -12 11 -17 11 -6 0 -7 -4 -4 -10z"/>
 <path d="M3100 1715 c-7 -9 -20 -13 -28 -10 -12 5 -13 3 -2 -10 19 -23 54 -15 58 13 4 26 -10 29 -28 7z"/>
 <path d="M2912 1693 c-7 -3 -17 -14 -23 -25 -11 -20 -11 -20 49 18 8 5 -14 11 -26 7z"/>
 <path d="M3180 1681 c0 -7 -5 -9 -12 -5 -7 5 -8 3 -3 -5 5 -9 10 -10 18 -2 6 6 8 14 4 18 -4 3 -7 1 -7 -6z"/>
 <path d="M3894 1675 c-9 -23 3 -45 24 -45 11 0 25 7 32 15 16 19 -3 45 -32 45 -10 0 -21 -7 -24 -15z"/>
 <path d="M1985 1161 c0 -394 3 -505 13 -509 9 -3 12 24 10 115 l-2 118 -6 -90 c-3 -49 -7 126 -10 390 l-5 480 0 -504z"/>
 <path d="M2990 1145 c3 -316 9 -508 15 -514 7 -7 8 42 3 147 -3 86 -6 318 -7 515 -1 196 -4 357 -8 357 -5 0 -6 -227 -3 -505z"/>
 <path d="M1360 1611 c-13 -25 11 -51 40 -44 24 6 27 48 4 57 -25 10 -33 7 -44 -13z"/>
 <path d="M2369 1609 c-9 -17 -8 -23 2 -30 12 -7 12 -9 0 -9 -8 0 -12 -3 -8 -6 12 -13 67 8 67 25 0 40 -42 54 -61 20z"/>
 <path d="M3371 1611 c-15 -27 9 -56 37 -47 24 8 29 35 10 54 -17 17 -36 15 -47 -7z"/>
 <path d="M1110 1590 c-23 -23 -24 -33 -10 -61 12 -22 59 -26 78 -7 19 19 14 55 -10 72 -29 20 -34 20 -58 -4z"/>
 <path d="M3120 1590 c-23 -23 -25 -39 -7 -64 16 -22 65 -25 78 -5 15 25 10 57 -13 73 -29 20 -34 20 -58 -4z"/>
 <path d="M1672 1583 c-22 -9 -33 -40 -22 -67 7 -20 17 -26 39 -26 28 0 61 22 61 39 0 5 -9 20 -21 35 -20 26 -31 29 -57 19z"/>
 <path d="M3671 1571 c-24 -24 -25 -34 -11 -62 14 -25 62 -25 85 1 18 20 18 21 -2 48 -26 35 -47 38 -72 13z"/>
 <path d="M2113 1573 c-16 -6 -17 -35 -1 -51 18 -18 63 -15 81 6 15 17 14 19 -26 33 -23 9 -48 14 -54 12z"/>
 <path d="M2463 1553 c15 -2 39 -2 55 0 15 2 2 4 -28 4 -30 0 -43 -2 -27 -4z"/>
 <path d="M1866 1524 c-19 -19 -17 -33 7 -48 24 -15 56 17 41 41 -15 24 -29 26 -48 7z"/>
 <path d="M2869 1519 c-9 -17 -8 -25 4 -37 29 -28 73 12 47 43 -17 21 -37 19 -51 -6z"/>
 <path d="M3875 1524 c-18 -19 -16 -33 8 -48 26 -16 53 14 38 43 -14 25 -24 26 -46 5z"/>
 <path d="M1257 1524 c-23 -23 7 -69 37 -58 25 10 17 58 -9 62 -12 2 -24 0 -28 -4z"/>
 <path d="M1505 1520 c17 -4 23 -8 15 -9 -10 -1 -11 -4 -4 -9 6 -4 14 -14 17 -22 4 -8 5 -1 4 15 -2 26 -6 30 -32 32 l-30 2 30 -9z"/>
 <path d="M2262 1506 c-4 -50 51 -58 61 -9 4 22 2 24 -19 20 -13 -2 -24 0 -24 4 0 21 -16 7 -18 -15z"/>
 <path d="M2710 1521 c0 -5 -9 -7 -20 -4 -14 4 -20 0 -20 -11 0 -11 9 -16 28 -16 34 0 57 14 48 29 -9 13 -36 15 -36 2z"/>
 <path d="M3267 1524 c-13 -13 -7 -52 8 -58 27 -10 46 5 43 33 -3 26 -35 41 -51 25z"/>
 <path d="M3526 1523 c7 -4 14 -19 17 -33 4 -22 5 -21 4 4 -1 17 -9 31 -17 33 -10 3 -11 2 -4 -4z"/>
 <path d="M1020 1494 c-11 -12 -10 -18 3 -31 22 -23 52 0 36 28 -12 23 -22 24 -39 3z"/>
 <path d="M2032 1498 c-17 -17 -15 -35 4 -42 25 -10 46 12 33 35 -11 22 -20 24 -37 7z"/>
 <path d="M3032 1498 c-17 -17 -15 -35 4 -42 25 -10 46 12 33 35 -11 22 -20 24 -37 7z"/>
 <path d="M3471 1502 c-1 -20 18 -52 32 -52 9 0 9 2 0 8 -7 4 -16 19 -22 32 -5 14 -10 19 -10 12z"/>
 <path d="M2483 1493 c15 -2 37 -2 50 0 12 2 0 4 -28 4 -27 0 -38 -2 -22 -4z"/>
 <path d="M994 875 c0 -116 2 -161 3 -102 2 59 2 154 0 210 -1 56 -3 8 -3 -108z"/>
 <path d="M1063 603 c9 -2 23 -2 30 0 6 3 -1 5 -18 5 -16 0 -22 -2 -12 -5z"/>
 <path d="M1250 600 c0 -5 7 -7 15 -4 8 4 15 8 15 10 0 2 -7 4 -15 4 -8 0 -15 -4 -15 -10z"/>
 <path d="M1360 603 c19 -3 41 -9 48 -15 9 -8 11 -7 6 6 -4 12 -17 16 -48 14 -40 -1 -40 -1 -6 -5z"/>
 <path d="M1438 603 c6 -2 18 -2 25 0 6 3 1 5 -13 5 -14 0 -19 -2 -12 -5z"/>
 <path d="M1508 603 c6 -2 18 -2 25 0 6 3 1 5 -13 5 -14 0 -19 -2 -12 -5z"/>
 <path d="M1557 603 c-3 -4 37 -7 88 -5 70 3 94 0 98 -10 2 -9 4 -8 3 2 -1 12 -20 16 -93 18 -50 1 -94 -1 -96 -5z"/>
 <path d="M1778 603 c6 -2 18 -2 25 0 6 3 1 5 -13 5 -14 0 -19 -2 -12 -5z"/>
 <path d="M1863 603 c15 -2 39 -2 55 0 15 2 2 4 -28 4 -30 0 -43 -2 -27 -4z"/>
 <path d="M2073 603 c9 -2 23 -2 30 0 6 3 -1 5 -18 5 -16 0 -22 -2 -12 -5z"/>
 <path d="M2260 600 c0 -5 7 -7 15 -4 8 4 15 8 15 10 0 2 -7 4 -15 4 -8 0 -15 -4 -15 -10z"/>
 <path d="M2370 603 c19 -3 41 -9 48 -15 9 -8 11 -7 6 6 -4 12 -17 16 -48 14 -40 -1 -40 -1 -6 -5z"/>
 <path d="M2448 603 c6 -2 18 -2 25 0 6 3 1 5 -13 5 -14 0 -19 -2 -12 -5z"/>
 <path d="M2518 603 c6 -2 18 -2 25 0 6 3 1 5 -13 5 -14 0 -19 -2 -12 -5z"/>
 <path d="M2567 603 c-3 -4 37 -7 88 -5 70 3 94 0 98 -10 2 -9 4 -8 3 2 -1 12 -20 16 -93 18 -50 1 -94 -1 -96 -5z"/>
 <path d="M2788 603 c6 -2 18 -2 25 0 6 3 1 5 -13 5 -14 0 -19 -2 -12 -5z"/>
 <path d="M2868 603 c18 -2 45 -2 60 0 15 2 0 4 -33 4 -33 0 -45 -2 -27 -4z"/>
 <path d="M3073 603 c9 -2 23 -2 30 0 6 3 -1 5 -18 5 -16 0 -22 -2 -12 -5z"/>
 <path d="M3260 600 c0 -5 7 -7 15 -4 8 4 15 8 15 10 0 2 -7 4 -15 4 -8 0 -15 -4 -15 -10z"/>
 <path d="M3370 603 c19 -3 41 -9 48 -15 9 -8 11 -7 6 6 -4 12 -17 16 -48 14 -40 -1 -40 -1 -6 -5z"/>
 <path d="M3448 603 c6 -2 18 -2 25 0 6 3 1 5 -13 5 -14 0 -19 -2 -12 -5z"/>
 <path d="M3518 603 c6 -2 18 -2 25 0 6 3 1 5 -13 5 -14 0 -19 -2 -12 -5z"/>
 <path d="M3567 603 c-3 -4 37 -7 88 -5 70 3 94 0 98 -10 2 -9 4 -8 3 2 -1 12 -20 16 -93 18 -50 1 -94 -1 -96 -5z"/>
 <path d="M3788 603 c6 -2 18 -2 25 0 6 3 1 5 -13 5 -14 0 -19 -2 -12 -5z"/>
 <path d="M3873 603 c15 -2 39 -2 55 0 15 2 2 4 -28 4 -30 0 -43 -2 -27 -4z"/>
 </g>
<g id="layer105" fill="#a45e40" stroke="none">
 <path d="M2416 2552 c-57 -34 -45 -41 88 -44 69 -2 126 0 126 3 0 3 -11 16 -25 29 -35 33 -144 39 -189 12z"/>
 <path d="M2369 2481 c-73 -23 -125 -64 -155 -123 -13 -26 -24 -49 -24 -51 0 -2 20 15 44 38 28 27 56 44 79 48 20 3 50 16 67 29 27 20 43 23 118 23 73 0 93 -4 123 -22 20 -13 45 -23 55 -23 34 0 98 -47 111 -82 13 -32 13 -32 7 -3 -14 74 -86 143 -177 170 -67 20 -179 18 -248 -4z"/>
 <path d="M2802 2260 c0 -14 2 -19 5 -12 2 6 2 18 0 25 -3 6 -5 1 -5 -13z"/>
 <path d="M2315 2250 c-16 -7 -17 -9 -3 -9 9 -1 20 4 23 9 7 11 7 11 -20 0z"/>
 <path d="M2668 2243 c6 -2 18 -2 25 0 6 3 1 5 -13 5 -14 0 -19 -2 -12 -5z"/>
 </g>
<g id="layer106" fill="#62bb50" stroke="none">
 <path d="M1011 4111 c-7 -12 -11 -224 -11 -576 -1 -616 -5 -584 63 -587 33 -1 37 -4 32 -22 -6 -20 -5 -19 15 3 19 22 21 23 39 7 12 -11 17 -25 13 -38 -3 -14 -1 -19 6 -14 7 4 12 18 12 32 0 31 25 41 49 20 22 -20 32 -21 24 0 -4 11 0 14 20 12 13 -2 32 -10 41 -17 14 -11 16 -11 16 3 0 12 10 16 40 16 23 0 40 -5 40 -11 0 -8 4 -8 13 -2 6 6 22 13 34 16 20 4 22 2 17 -19 -3 -13 -2 -24 4 -24 5 0 12 9 15 19 4 18 15 19 126 19 98 0 123 -3 129 -15 8 -14 10 -14 15 0 4 10 16 14 32 13 21 -3 41 11 97 65 39 38 75 69 79 69 15 0 11 1024 -3 1038 -9 9 -129 12 -480 12 -447 0 -468 -1 -477 -19z m97 -33 c18 -18 14 -46 -8 -53 -27 -8 -40 1 -40 29 0 36 24 48 48 24z m186 -15 c15 -25 14 -36 -2 -55 -22 -26 -69 -23 -78 5 -9 25 -6 47 7 63 14 17 61 8 73 -13z m306 -24 c9 -16 8 -26 -5 -45 -33 -51 -108 -9 -86 49 16 42 68 40 91 -4z m180 26 c16 -19 6 -45 -18 -45 -28 0 -43 20 -31 42 12 22 32 23 49 3z m164 -51 c8 -21 -11 -44 -36 -44 -21 0 -33 22 -24 45 7 20 52 19 60 -1z m-536 -56 c11 -11 17 -48 8 -48 -2 0 -11 -3 -19 -6 -23 -9 -49 24 -37 47 12 22 30 25 48 7z m-226 -32 c14 -21 8 -55 -13 -70 -23 -16 -47 -12 -66 12 -18 22 -16 39 8 63 21 21 56 19 71 -5z m547 -22 c25 -32 26 -38 5 -58 -22 -23 -71 -20 -84 3 -14 28 -13 38 10 61 27 27 44 25 69 -6z m185 -47 c15 -24 -17 -56 -41 -41 -24 15 -26 29 -7 48 19 19 33 17 48 -7z m-606 -18 c4 -30 -22 -46 -44 -28 -15 12 -19 41 -7 53 16 16 48 1 51 -25z m228 -2 c1 -24 1 -24 -3 -3 -3 16 -12 26 -26 29 -18 3 -17 4 3 3 20 -1 25 -6 26 -29z m-476 -3 c11 -12 10 -18 -3 -32 -16 -15 -18 -15 -34 0 -13 14 -14 20 -3 32 7 9 16 16 20 16 4 0 13 -7 20 -16z m419 -29 c0 -5 -4 -3 -9 5 -5 8 -9 22 -9 30 0 16 17 -16 18 -35z"/>
 <path d="M2010 4101 c-6 -13 -10 -191 -10 -510 l0 -490 57 35 c113 68 238 104 385 111 180 9 332 -24 476 -103 l62 -35 0 494 c0 370 -3 496 -12 505 -9 9 -129 12 -480 12 -452 0 -468 -1 -478 -19z m98 -33 c19 -19 14 -46 -9 -53 -28 -9 -43 8 -35 39 7 28 25 33 44 14z m191 -28 c7 -23 6 -32 -8 -44 -50 -45 -111 16 -70 70 5 6 22 9 38 6 22 -3 32 -12 40 -32z m479 21 c19 -11 11 -45 -11 -49 -28 -6 -49 16 -36 39 10 20 26 24 47 10z m-182 -26 c15 -23 15 -27 0 -50 -9 -14 -26 -25 -38 -25 -25 0 -58 27 -58 47 0 54 66 74 96 28z m348 -31 c8 -21 -11 -44 -36 -44 -21 0 -33 22 -24 45 7 20 52 19 60 -1z m-536 -56 c11 -11 17 -48 8 -48 -2 0 -11 -3 -19 -6 -23 -9 -49 24 -37 47 12 22 30 25 48 7z m-240 -24 c24 -17 29 -53 10 -72 -19 -19 -66 -15 -78 7 -14 28 -13 38 10 61 24 24 29 24 58 4z m561 -30 c12 -15 21 -30 21 -35 0 -17 -33 -39 -61 -39 -64 0 -57 95 8 99 6 1 21 -11 32 -25z m191 -58 c0 -23 -30 -41 -48 -30 -23 15 -25 29 -7 48 12 12 21 13 36 6 10 -6 19 -17 19 -24z m-612 -7 c4 -30 -22 -46 -44 -28 -15 12 -19 41 -7 53 16 16 48 1 51 -25z m228 17 c3 -8 4 -22 2 -31 -2 -13 -5 -12 -16 6 -8 11 -9 18 -3 14 6 -3 11 -2 11 4 0 5 -12 12 -27 14 l-28 4 28 2 c16 0 30 -5 33 -13z m-477 -25 c13 -23 -8 -45 -33 -35 -19 7 -21 25 -4 42 17 17 26 15 37 -7z m418 -8 c1 -19 -1 -22 -8 -12 -11 17 -12 39 -1 39 4 0 8 -12 9 -27z"/>
 <path d="M3020 4101 c-6 -13 -10 -194 -10 -518 l0 -499 43 -32 c23 -18 61 -54 85 -82 38 -44 45 -48 62 -38 15 10 22 9 38 -5 23 -21 33 -22 25 -1 -4 11 0 14 20 12 13 -2 32 -10 41 -17 14 -11 16 -11 16 3 0 12 10 16 40 16 23 0 40 -5 40 -11 0 -8 4 -8 13 -2 6 6 22 13 34 16 20 4 22 2 17 -19 -3 -13 -2 -24 4 -24 5 0 12 9 15 19 4 17 15 19 125 19 101 0 122 -3 127 -16 5 -14 8 -14 15 -2 11 18 41 22 59 7 11 -9 15 -9 18 1 3 8 25 12 64 12 46 0 65 5 81 20 12 11 16 20 10 20 -9 0 -12 134 -12 558 0 421 -3 561 -12 570 -9 9 -129 12 -480 12 -452 0 -468 -1 -478 -19z m98 -33 c19 -19 14 -46 -9 -53 -28 -9 -43 8 -35 39 7 28 25 33 44 14z m187 -17 c14 -23 13 -34 -3 -53 -19 -23 -50 -23 -74 -1 -22 20 -23 32 -3 59 17 25 64 22 80 -5z m485 4 c16 -19 6 -45 -18 -45 -28 0 -43 20 -31 42 12 22 32 23 49 3z m-184 -20 c15 -23 15 -27 0 -50 -37 -56 -110 -13 -86 50 13 35 63 35 86 0z m348 -32 c9 -22 -13 -45 -38 -41 -26 4 -33 38 -11 54 20 15 41 9 49 -13z m-528 -69 c4 -17 2 -29 -7 -35 -19 -12 -22 -11 -43 4 -15 11 -17 17 -7 35 16 31 49 28 57 -4z m-248 -10 c28 -19 28 -58 1 -78 -23 -16 -47 -12 -66 12 -18 22 -16 39 7 62 24 24 29 24 58 4z m561 -30 c25 -32 26 -38 5 -58 -22 -23 -71 -20 -84 3 -14 28 -13 38 10 61 27 27 44 25 69 -6z m182 -45 c15 -29 -12 -59 -38 -43 -24 15 -26 29 -8 48 22 21 32 20 46 -5z m-603 -20 c4 -30 -22 -46 -44 -28 -15 12 -19 41 -7 53 16 16 48 1 51 -25z m228 -2 c1 -24 1 -24 -3 -3 -3 16 -12 26 -26 29 -18 3 -17 4 3 3 20 -1 25 -6 26 -29z m-477 -5 c7 -13 6 -23 -1 -30 -28 -28 -63 3 -38 33 16 20 27 19 39 -3z m420 -25 c1 -5 -3 -5 -9 -2 -5 3 -10 16 -9 28 0 21 1 21 9 2 5 -11 9 -24 9 -28z"/>
 <path d="M2440 3192 c-135 -10 -275 -55 -379 -122 -55 -36 -61 -43 -61 -74 0 -41 16 -56 64 -58 32 -1 36 -4 31 -22 -6 -20 -5 -19 15 3 19 22 21 23 39 7 12 -11 17 -25 13 -38 -3 -14 -1 -19 6 -14 7 4 12 18 12 32 0 31 25 41 49 20 22 -20 32 -21 24 0 -4 11 0 14 20 12 13 -2 32 -10 41 -17 14 -11 16 -11 16 3 0 12 10 16 40 16 23 0 40 -5 40 -11 0 -8 4 -8 13 -2 6 6 22 13 34 16 20 4 22 2 17 -19 -3 -13 -2 -24 4 -24 5 0 12 9 15 19 4 18 15 19 125 19 103 0 121 -2 127 -16 5 -14 8 -14 15 -2 11 18 41 22 59 7 11 -9 15 -9 18 1 3 8 26 12 65 12 69 0 86 12 84 60 -1 29 -8 38 -55 68 -137 88 -329 136 -491 124z"/>
 <path d="M1934 2973 c-105 -103 -197 -263 -234 -407 -27 -108 -27 -281 0 -390 26 -102 77 -207 143 -295 62 -83 141 -156 135 -125 -2 10 -9 20 -16 20 -26 3 -26 5 1 20 19 10 27 21 23 31 -3 8 -6 201 -6 429 l0 414 -39 0 c-22 0 -41 -5 -44 -12 -7 -19 -42 5 -42 28 0 13 8 20 28 22 25 3 27 6 27 50 0 37 -5 50 -20 60 -17 10 -18 16 -10 32 12 22 59 28 62 8 0 -7 2 -17 3 -23 2 -5 3 -37 4 -71 1 -48 4 -61 16 -61 14 0 16 19 14 128 0 70 2 132 5 138 4 6 3 18 -2 26 -7 14 -15 10 -48 -22z m36 -33 c0 -5 -14 -10 -31 -10 -17 0 -28 4 -24 10 3 6 17 10 31 10 13 0 24 -4 24 -10z"/>
 <path d="M3007 2990 c-6 -23 18 -46 56 -52 37 -7 34 3 -12 40 -36 29 -39 30 -44 12z"/>
 <path d="M998 2384 c-2 -308 -1 -564 0 -571 5 -15 31 -24 72 -25 26 -1 30 -4 25 -22 -6 -20 -5 -19 15 3 19 22 21 23 39 7 12 -11 17 -25 13 -38 -3 -14 -1 -19 6 -14 7 4 12 18 12 32 0 31 25 41 49 20 22 -20 32 -21 24 0 -4 11 0 14 20 12 13 -2 32 -10 41 -17 14 -11 16 -11 16 3 0 12 10 16 40 16 23 0 40 -5 40 -11 0 -8 4 -8 13 -2 6 6 22 13 34 16 20 4 22 2 17 -19 -3 -13 -2 -24 4 -24 5 0 12 9 15 19 4 18 15 19 126 19 114 0 122 -1 133 -21 6 -12 17 -28 25 -35 29 -29 9 -58 -33 -48 -17 5 -24 13 -24 31 0 13 5 27 10 30 25 15 -7 25 -78 24 -42 0 -71 -3 -64 -6 6 -2 12 -11 12 -20 0 -12 -6 -11 -36 6 -37 22 -64 27 -64 12 0 -5 -5 -22 -10 -37 -12 -30 -27 -23 -35 16 -7 34 -11 35 -47 5 -32 -27 -53 -20 -28 10 10 13 8 15 -15 15 -20 0 -26 -4 -21 -15 19 -46 17 -48 -15 -17 -34 31 -59 41 -59 23 0 -5 7 -14 15 -21 38 -32 19 -90 -31 -90 -43 0 -66 72 -28 87 11 4 11 7 -1 19 -20 21 -35 17 -35 -8 -1 -13 -7 -36 -14 -53 l-14 -30 -11 28 c-6 16 -11 40 -11 54 0 21 -2 23 -15 13 -9 -7 -12 -22 -9 -40 5 -23 2 -29 -16 -35 -15 -5 -28 -2 -38 9 -15 15 -15 18 1 45 l17 29 -33 5 c-18 2 -35 0 -39 -7 -4 -6 -8 -252 -8 -546 0 -294 -2 -544 -5 -555 -8 -34 20 -58 64 -57 36 2 39 0 34 -21 l-5 -22 21 23 c17 20 23 21 40 10 23 -14 27 -24 11 -30 -7 -2 -5 -11 4 -23 15 -19 15 -19 16 7 0 55 24 75 50 43 16 -19 31 -19 24 0 -5 11 1 14 21 13 15 -2 30 -8 32 -15 7 -18 23 -16 23 2 0 19 76 21 83 3 4 -9 8 -10 14 -2 11 14 53 25 53 13 0 -5 -4 -9 -10 -9 -5 0 -7 -7 -3 -17 5 -14 9 -13 25 7 17 21 23 23 49 13 16 -6 27 -7 23 -2 -3 5 33 9 85 9 72 0 92 -3 99 -16 8 -15 10 -15 15 0 8 19 38 21 55 4 10 -10 14 -10 21 0 5 9 27 12 64 11 44 -2 61 2 78 17 20 18 21 18 35 0 10 -14 25 -19 53 -18 36 2 39 0 34 -21 l-5 -22 21 23 c17 20 23 21 40 10 23 -14 27 -24 11 -30 -7 -2 -5 -11 4 -23 15 -19 15 -19 16 7 0 55 24 75 50 43 16 -19 31 -19 24 0 -5 11 1 14 21 13 15 -2 30 -8 32 -15 7 -18 23 -16 23 2 0 19 76 21 83 3 4 -9 8 -10 14 -2 11 14 53 25 53 13 0 -5 -4 -9 -10 -9 -5 0 -7 -7 -3 -17 5 -14 9 -13 25 7 17 21 23 23 49 13 16 -6 27 -7 23 -2 -3 5 33 9 85 9 72 0 92 -3 99 -16 8 -15 10 -15 15 0 7 18 42 22 52 6 3 -5 11 -10 16 -10 6 0 7 5 4 11 -5 7 15 9 58 8 45 -1 69 2 79 12 10 11 12 109 10 517 -1 277 -6 502 -10 500 -4 -2 -43 -22 -87 -44 -44 -23 -97 -47 -118 -53 -21 -7 -34 -17 -31 -23 4 -6 0 -14 -7 -19 -19 -12 -67 -11 -71 1 -2 7 -27 7 -78 0 -69 -10 -132 -8 -232 6 -33 5 -38 3 -38 -14 0 -11 -7 -23 -16 -26 -22 -8 -45 12 -42 37 4 29 -46 45 -71 23 -21 -19 -62 -21 -79 -4 -15 15 -15 45 0 50 7 3 -14 18 -45 35 l-57 31 0 -495 c0 -391 -3 -494 -12 -491 -10 4 -14 116 -16 508 l-2 503 -23 16 c-12 8 -42 33 -67 55 -25 22 -39 34 -32 26 16 -19 15 -30 -2 -30 -8 0 -22 10 -30 21 -11 16 -22 20 -41 17 -15 -3 -24 -1 -22 5 4 14 44 19 52 7 7 -12 25 -13 25 -2 0 4 -23 39 -51 77 -65 89 -92 142 -130 258 -26 76 -32 113 -37 214 -5 125 7 240 34 314 7 22 9 39 4 39 -15 0 -22 38 -10 60 6 11 22 23 35 26 15 4 34 23 49 50 23 41 23 43 5 49 -20 7 -26 30 -9 40 24 15 -7 25 -78 25 -42 0 -72 -4 -66 -8 6 -4 14 -21 17 -38 12 -61 -48 -98 -87 -55 -21 23 -12 71 15 78 10 3 16 9 13 14 -7 12 -44 12 -44 0 0 -5 -5 -22 -10 -37 -12 -30 -27 -23 -35 16 -7 34 -11 35 -45 6 -35 -29 -62 -25 -34 5 16 18 16 19 -9 19 -24 0 -26 -2 -16 -26 14 -38 7 -38 -26 -4 -16 17 -35 30 -42 30 -8 0 -6 -7 7 -20 25 -25 25 -42 2 -63 -46 -42 -104 -1 -82 58 7 20 6 25 -5 25 -9 0 -15 -10 -15 -22 -1 -13 -7 -36 -14 -53 l-14 -30 -11 28 c-6 16 -11 40 -11 53 0 14 -4 22 -10 19 -5 -3 -10 -17 -10 -31 0 -13 -3 -25 -7 -25 -68 -10 -77 -3 -47 39 14 20 14 22 -3 22 -10 0 -28 3 -40 6 l-23 6 -2 -558z m410 414 c17 -17 15 -45 -4 -52 -19 -7 -54 10 -54 27 0 16 20 37 35 37 6 0 16 -5 23 -12z m-240 -24 c24 -17 29 -53 10 -72 -19 -19 -66 -15 -78 7 -14 28 -13 38 10 61 24 24 29 24 58 4z m140 -95 c4 -30 -22 -46 -44 -28 -15 12 -19 41 -7 53 16 16 48 1 51 -25z m228 -2 c1 -24 1 -24 -3 -3 -3 16 -12 26 -26 29 -18 3 -17 4 3 3 20 -1 25 -6 26 -29z m-477 -6 c15 -27 -13 -51 -35 -29 -17 16 -9 48 12 48 7 0 18 -9 23 -19z m422 -6 c5 3 6 -1 3 -9 -8 -22 -24 -10 -23 17 1 17 2 18 6 4 2 -9 9 -15 14 -12z m120 -967 c15 -27 -13 -68 -46 -68 -34 0 -59 39 -46 73 17 43 68 40 92 -5z m339 -53 c-17 -21 -54 -15 -58 9 -3 11 4 26 14 33 16 11 21 10 38 -6 16 -17 17 -22 6 -36z m-536 -21 c23 -9 20 -51 -4 -57 -29 -7 -53 19 -40 44 11 20 19 23 44 13z m-236 -30 c24 -17 29 -53 10 -72 -19 -19 -66 -15 -78 7 -14 28 -13 38 10 61 24 24 29 24 58 4z m561 -30 c12 -15 21 -30 21 -35 0 -17 -33 -39 -61 -39 -64 0 -57 95 8 99 6 1 21 -11 32 -25z m185 -47 c15 -24 -17 -56 -41 -41 -24 15 -26 29 -7 48 19 19 33 17 48 -7z m1006 8 c26 -31 -18 -71 -47 -43 -12 12 -13 20 -4 37 14 25 34 27 51 6z m-1612 -26 c4 -30 -22 -46 -44 -28 -15 12 -19 41 -7 53 16 16 48 1 51 -25z m229 -4 c1 -16 0 -23 -4 -15 -3 8 -11 18 -17 22 -7 5 -6 8 4 9 8 1 2 5 -15 9 l-30 9 30 -2 c26 -2 30 -6 32 -32z m-478 -4 c16 -28 -14 -51 -36 -28 -13 13 -14 19 -3 31 17 21 27 20 39 -3z m1010 0 c13 -23 -8 -45 -33 -35 -19 7 -21 25 -4 42 17 17 26 15 37 -7z"/>
 <path d="M1770 2921 c0 -18 18 -21 30 -6 10 13 9 15 -9 15 -11 0 -21 -4 -21 -9z"/>
 <path d="M2008 2876 c-3 -52 -2 -55 19 -50 32 8 60 -12 69 -48 l8 -33 6 40 c5 43 32 57 38 20 7 -44 15 -50 21 -15 9 52 35 47 39 -7 2 -24 7 -43 13 -43 15 0 10 79 -6 104 -12 18 -13 30 -6 50 9 21 8 26 -4 26 -9 0 -15 -10 -15 -22 -1 -13 -7 -36 -14 -53 l-14 -30 -11 28 c-6 16 -11 40 -11 53 0 14 -4 22 -10 19 -5 -3 -10 -17 -10 -30 0 -18 -7 -26 -26 -31 -37 -9 -51 9 -30 40 16 25 16 26 -3 26 -11 0 -26 3 -34 6 -12 4 -16 -6 -19 -50z"/>
 <path d="M2910 2921 c-39 -4 -60 -9 -52 -14 6 -5 12 -12 12 -18 0 -16 -26 -10 -45 11 -10 11 -26 20 -37 20 -21 0 -23 -11 -7 -27 28 -28 -15 -56 -51 -33 -12 8 -13 13 -3 29 6 10 9 22 6 25 -4 3 -40 6 -82 6 -42 0 -71 -4 -65 -8 6 -4 14 -21 17 -38 7 -36 -17 -78 -39 -70 -9 3 -14 -1 -14 -12 0 -21 11 -37 28 -38 28 -2 32 -5 34 -21 0 -10 4 2 7 27 7 52 39 78 84 66 38 -9 34 -34 -5 -38 -26 -2 -34 -8 -36 -26 -3 -21 -2 -22 17 -11 17 11 23 10 40 -5 20 -18 20 -17 23 30 2 36 7 49 18 49 10 0 16 -12 18 -35 2 -19 10 -39 18 -43 23 -13 16 -37 -11 -37 -24 0 -78 -44 -67 -54 3 -3 1 -6 -5 -6 -5 0 -8 -14 -5 -30 3 -19 -2 -38 -10 -48 -14 -16 -41 -84 -36 -87 2 0 22 -13 45 -28 78 -50 105 -105 119 -239 7 -75 0 -103 -49 -181 l-29 -47 21 -18 c20 -15 20 -19 7 -37 -14 -20 -15 -20 -39 3 l-24 22 -57 -26 c-85 -39 -204 -45 -285 -14 -33 12 -66 28 -72 36 -15 18 -29 18 -29 0 0 -7 -7 -19 -15 -26 -13 -11 -18 -10 -30 6 -13 17 -12 21 7 37 l21 18 -20 22 c-48 51 -68 108 -68 192 0 123 39 203 126 256 46 29 48 31 36 57 -7 15 -21 37 -31 50 -24 27 -49 99 -42 118 3 8 21 15 43 15 24 1 30 3 15 6 -21 4 -23 9 -20 61 2 43 7 57 18 57 10 0 16 -13 18 -42 4 -55 20 -56 24 -1 3 45 26 64 35 29 7 -27 19 -27 26 0 8 31 31 18 35 -19 4 -40 18 -41 27 -2 4 17 11 30 17 30 6 0 8 10 4 25 -5 19 -2 25 9 25 9 0 13 5 10 11 -4 6 2 13 14 16 24 6 18 23 -8 23 -10 0 -22 -13 -30 -36 -14 -38 -28 -36 -36 6 -6 32 -15 38 -28 19 -15 -20 -53 -40 -61 -32 -3 4 1 15 11 25 15 17 15 18 -12 18 -20 0 -26 -4 -21 -15 19 -46 17 -48 -15 -17 -37 34 -73 46 -39 12 25 -25 25 -42 0 -65 -13 -12 -20 -33 -22 -69 l-3 -51 -45 -6 c-25 -3 -40 -7 -35 -8 6 -1 3 -6 -5 -11 -24 -15 -68 -12 -78 6 -6 11 -24 17 -54 18 -42 1 -44 0 -40 -27 4 -23 7 -26 19 -15 12 10 18 9 29 -7 12 -16 12 -21 0 -34 -12 -11 -18 -12 -29 -3 -8 7 -16 9 -20 6 -3 -3 -6 -191 -7 -418 -1 -457 -4 -437 65 -439 30 -1 34 -4 30 -21 -6 -19 -4 -19 15 3 19 22 21 23 39 7 12 -11 17 -25 13 -38 -3 -14 -1 -19 6 -14 7 4 12 18 12 32 0 31 25 41 49 20 22 -20 32 -21 24 0 -4 11 0 14 20 12 13 -2 32 -10 41 -17 14 -11 16 -11 16 3 0 12 10 16 40 16 23 0 40 -5 40 -11 0 -8 4 -8 13 -2 6 6 22 13 34 16 20 4 22 2 17 -19 -3 -13 -2 -24 4 -24 5 0 12 8 15 19 4 17 15 19 123 18 l118 0 34 -33 c36 -35 38 -64 4 -64 -28 0 -58 36 -43 53 18 22 3 27 -78 27 -42 0 -71 -4 -66 -8 6 -4 16 -23 22 -41 11 -29 10 -39 -2 -58 -32 -49 -106 -12 -88 44 6 18 18 29 32 31 22 3 22 4 4 17 -21 16 -53 20 -53 6 0 -5 -5 -22 -10 -37 -12 -30 -27 -23 -35 16 -7 34 -11 35 -45 6 -35 -29 -62 -25 -34 5 16 18 16 19 -9 19 -24 0 -26 -2 -16 -26 14 -38 7 -38 -26 -4 -16 17 -36 30 -44 30 -13 -1 -13 -2 1 -11 10 -5 23 -19 29 -30 24 -46 -48 -93 -82 -53 -7 9 -12 33 -11 55 2 29 -1 39 -13 39 -9 0 -15 -9 -15 -22 -1 -13 -7 -36 -14 -53 l-14 -30 -11 28 c-6 16 -11 40 -11 53 0 14 -4 23 -9 20 -4 -3 -6 -17 -3 -32 7 -40 -27 -57 -62 -31 -18 13 -18 15 -2 39 17 25 16 26 -14 30 -35 5 -40 2 -40 -27 0 -34 154 -118 275 -150 67 -17 109 -20 86 -6 -10 7 -11 13 -2 30 13 24 31 27 49 9 18 -18 15 -46 -5 -52 -10 -3 38 -3 107 -1 173 5 318 48 378 112 12 13 26 21 32 18 17 -10 60 26 60 51 0 25 -15 40 -25 24 -3 -5 -32 -10 -63 -10 -43 0 -53 -3 -44 -12 16 -16 15 -28 -2 -28 -8 0 -22 10 -30 21 -11 16 -22 20 -41 17 -15 -3 -24 -1 -22 5 5 15 39 18 56 4 11 -9 15 -9 18 1 3 8 26 12 68 12 39 0 66 5 71 13 5 6 8 215 6 464 l-3 452 -22 3 c-34 5 -31 59 3 69 l25 7 -27 1 c-14 1 -29 7 -31 14 -3 6 -6 -7 -6 -30 -1 -31 -7 -46 -23 -57 -17 -12 -19 -16 -6 -16 23 0 32 -31 13 -49 -22 -22 -51 -2 -47 33 2 18 -2 26 -13 26 -21 0 -39 43 -31 75 4 15 18 31 34 38 15 6 31 17 35 24 11 18 57 17 57 -2 0 -8 9 -15 20 -15 17 0 20 7 20 50 0 28 -1 49 -2 48 -2 -1 -32 -4 -68 -7z"/>
 <path d="M3011 2819 c2 -63 2 -316 0 -562 -2 -465 -1 -477 39 -477 25 0 134 142 180 235 79 161 103 379 60 551 -21 82 -104 264 -120 264 -6 0 -10 6 -10 14 0 7 -6 19 -14 25 -10 9 -15 8 -20 -4 -7 -19 -66 -21 -66 -2 0 7 7 23 16 35 14 20 14 22 -3 22 -10 0 -28 3 -41 6 l-23 7 2 -114z m99 -3 c19 -24 8 -59 -20 -67 -19 -5 -20 -7 -6 -8 11 -1 30 9 42 20 22 21 25 21 49 5 27 -18 33 -54 13 -74 -17 -17 -65 -15 -75 2 -4 8 -24 16 -43 18 -31 3 -35 6 -35 33 0 23 6 31 25 36 l25 7 -27 1 c-17 1 -28 7 -28 15 0 27 60 35 80 12z m-40 -152 c11 -12 11 -18 -2 -30 -16 -16 -48 -9 -48 10 0 13 20 36 31 36 4 0 12 -7 19 -16z"/>
 <path d="M3920 2920 c-38 -3 -60 -8 -52 -13 6 -5 12 -12 12 -18 0 -16 -26 -10 -45 11 -10 11 -26 20 -37 20 -21 0 -23 -11 -7 -27 28 -28 -15 -56 -51 -33 -12 8 -13 13 -3 29 6 10 9 22 6 25 -4 3 -40 6 -82 6 -42 0 -71 -4 -65 -8 6 -4 14 -21 17 -38 12 -61 -48 -98 -87 -55 -21 23 -12 71 15 78 10 3 16 9 13 14 -7 12 -44 12 -44 0 0 -5 -5 -22 -10 -37 -12 -30 -27 -23 -35 16 -7 34 -11 35 -45 6 -35 -29 -62 -25 -34 5 16 18 16 19 -9 19 -24 0 -26 -2 -16 -26 14 -38 7 -38 -26 -4 -16 17 -35 30 -42 30 -8 0 -6 -7 7 -20 26 -26 25 -42 -3 -68 -18 -17 -26 -19 -36 -9 -7 6 6 -26 28 -73 66 -137 76 -191 76 -380 -1 -153 -3 -171 -29 -250 -37 -111 -74 -183 -136 -265 -45 -59 -49 -69 -38 -88 7 -12 11 -30 9 -41 -1 -11 2 -16 8 -12 6 4 11 18 11 32 0 31 25 41 49 20 22 -20 32 -21 24 0 -4 11 0 14 20 12 13 -2 32 -10 41 -17 14 -11 16 -11 16 3 0 12 10 16 40 16 24 0 40 -5 40 -12 0 -9 3 -9 12 0 7 7 22 12 34 12 17 0 21 -4 17 -20 -3 -11 -1 -20 5 -20 5 0 12 9 15 19 4 18 15 19 122 19 l117 0 29 -31 c35 -36 34 -61 -3 -65 -19 -2 -28 2 -33 18 -4 11 -2 27 4 34 18 21 2 26 -78 26 -47 0 -71 -4 -62 -9 7 -5 11 -15 9 -22 -3 -8 -1 -22 4 -32 7 -13 5 -26 -7 -43 -34 -52 -108 -9 -86 50 7 17 18 26 32 26 18 0 19 2 9 15 -14 16 -50 21 -50 6 0 -5 -5 -22 -11 -38 -10 -26 -11 -27 -24 -10 -8 11 -11 25 -9 32 10 26 -17 26 -47 1 -34 -29 -60 -25 -33 5 16 18 16 19 -11 19 -20 0 -26 -4 -21 -15 18 -46 17 -48 -17 -16 -43 41 -68 38 -35 -4 13 -16 23 -30 23 -31 0 -1 -9 -11 -19 -23 -24 -26 -58 -27 -81 -1 -14 16 -15 24 -6 51 14 40 14 39 -3 39 -9 0 -16 -16 -20 -45 -4 -24 -11 -47 -17 -50 -11 -7 -29 37 -29 72 0 20 -3 23 -14 14 -7 -6 -11 -22 -8 -36 5 -30 -21 -44 -50 -26 -17 11 -24 9 -44 -10 l-24 -22 0 -511 c0 -284 4 -517 9 -525 6 -9 24 -14 49 -13 37 2 40 0 35 -21 l-5 -22 21 23 c17 20 23 21 40 10 23 -14 27 -24 11 -30 -7 -2 -5 -11 4 -23 15 -19 15 -19 16 7 0 55 24 75 50 43 16 -19 31 -19 24 0 -5 11 1 14 21 13 15 -2 30 -8 32 -15 7 -18 23 -16 23 2 0 19 76 21 83 3 4 -9 8 -10 14 -2 11 14 53 25 53 13 0 -5 -4 -9 -10 -9 -5 0 -7 -7 -3 -17 5 -14 9 -13 25 7 17 21 23 23 49 13 16 -6 27 -7 23 -2 -3 5 33 9 85 9 72 0 92 -3 99 -16 8 -15 10 -15 15 0 8 19 38 21 55 4 10 -10 14 -10 21 0 5 9 27 12 65 11 47 -2 61 1 79 19 12 12 16 22 9 22 -9 0 -12 126 -12 561 0 508 -2 561 -16 555 -9 -3 -38 -6 -66 -6 -44 0 -49 -2 -38 -15 22 -26 1 -30 -31 -6 -18 13 -39 21 -50 18 -12 -3 -19 -1 -17 5 5 15 45 20 53 8 3 -6 11 -10 16 -10 6 0 8 4 5 9 -4 5 23 9 60 10 48 0 72 5 86 17 11 11 14 20 8 24 -6 4 -11 197 -12 556 l-3 549 -65 -5z m30 -75 c10 -12 10 -18 0 -30 -27 -32 -71 -8 -56 30 3 8 14 15 24 15 11 0 25 -7 32 -15z m-532 -57 c11 -11 17 -48 8 -48 -2 0 -11 -3 -19 -6 -23 -9 -49 24 -37 47 12 22 30 25 48 7z m313 -41 c44 -33 25 -87 -31 -87 -36 0 -54 28 -41 63 14 36 44 46 72 24z m193 -60 c13 -21 -15 -53 -38 -44 -26 10 -31 38 -11 54 22 16 35 13 49 -10z m-376 -21 c2 -16 0 -26 -6 -22 -6 3 -8 15 -5 26 4 15 0 20 -15 20 -26 0 -44 -23 -37 -46 4 -14 2 -13 -6 3 -15 28 6 54 41 50 19 -1 26 -8 28 -31z m402 -991 c10 -12 10 -18 0 -30 -27 -32 -71 -8 -56 30 3 8 14 15 24 15 11 0 25 -7 32 -15z m-532 -57 c19 -19 14 -46 -10 -54 -28 -9 -52 20 -37 47 11 22 30 24 47 7z m-240 -24 c23 -16 28 -48 13 -73 -13 -20 -62 -17 -78 5 -18 25 -16 41 7 64 24 24 29 24 58 4z m565 -36 c20 -27 20 -28 2 -48 -23 -26 -71 -26 -85 -1 -14 28 -13 38 11 62 25 25 46 22 72 -13z m178 -39 c15 -29 -12 -59 -38 -43 -24 15 -26 29 -8 48 22 21 32 20 46 -5z m-603 -20 c3 -28 -16 -43 -43 -33 -15 6 -21 45 -8 58 16 16 48 1 51 -25z m229 -5 c1 -25 0 -26 -4 -4 -3 14 -10 29 -17 33 -7 6 -6 7 4 4 8 -2 16 -16 17 -33z m-478 -3 c13 -23 -8 -45 -33 -35 -19 7 -21 25 -4 42 17 17 26 15 37 -7z m434 -33 c9 -6 9 -8 0 -8 -14 0 -33 32 -32 52 0 7 5 2 10 -12 6 -13 15 -28 22 -32z"/>
 <path d="M3200 2912 c0 -5 6 -16 13 -25 11 -16 12 -15 12 8 0 14 -6 25 -12 25 -7 0 -13 -4 -13 -8z"/>
 <path d="M2030 2765 c0 -17 5 -25 13 -22 6 2 12 12 12 22 0 10 -6 20 -12 23 -8 2 -13 -6 -13 -23z"/>
 <path d="M2852 2768 c5 -32 28 -35 28 -4 0 17 -5 26 -16 26 -10 0 -14 -7 -12 -22z"/>
 <path d="M3015 1759 c-11 -17 1 -21 15 -4 8 9 8 15 2 15 -6 0 -14 -5 -17 -11z"/>
 </g>
<g id="layer107" fill="#7b9482" stroke="none">
 <path d="M2993 2955 c0 -8 4 -15 9 -15 4 0 8 7 8 15 0 8 -4 15 -8 15 -5 0 -9 -7 -9 -15z"/>
 <path d="M2740 1940 c0 -5 5 -10 10 -10 6 0 10 5 10 10 0 6 -4 10 -10 10 -5 0 -10 -4 -10 -10z"/>
 <path d="M1986 1778 c3 -4 9 -8 15 -8 5 0 9 4 9 8 0 5 -7 9 -15 9 -8 0 -12 -4 -9 -9z"/>
 <path d="M1971 620 c-31 -26 -17 -26 16 0 14 11 22 20 17 20 -5 -1 -20 -10 -33 -20z"/>
 <path d="M3981 620 c-13 -11 -19 -20 -14 -20 6 0 18 9 28 20 23 25 17 25 -14 0z"/>
 <path d="M2976 615 c-11 -8 -15 -15 -9 -15 6 0 16 7 23 15 16 19 11 19 -14 0z"/>
 </g>
<g id="layer108" fill="#b09f6b" stroke="none">
 <path d="M2422 2441 c-18 -5 -41 -16 -51 -25 -10 -9 -35 -19 -54 -23 -39 -6 -112 -62 -122 -93 -3 -10 3 -37 15 -59 19 -39 35 -57 24 -28 -9 24 23 42 52 28 31 -14 44 -14 24 0 -12 9 -11 10 7 6 13 -3 25 -2 27 2 3 4 -10 8 -27 9 -33 3 -62 21 -36 23 7 1 21 0 29 -1 8 -1 5 6 -9 17 -16 13 -22 26 -18 36 7 19 53 23 59 6 3 -9 19 -7 58 6 40 13 72 16 132 12 43 -3 85 -10 92 -16 7 -6 16 -8 19 -4 4 3 7 -2 7 -13 0 -22 35 -48 52 -38 14 9 81 -65 74 -83 -3 -8 -2 -12 3 -8 18 10 23 67 11 111 -10 36 -21 50 -55 69 -23 14 -50 25 -60 25 -10 0 -33 9 -51 21 -37 23 -147 34 -202 20z m101 -27 c12 -13 -3 -21 -28 -17 -13 3 -22 9 -19 14 6 10 38 12 47 3z m195 -90 c4 -27 -26 -40 -46 -20 -21 20 -8 48 20 44 14 -2 24 -11 26 -24z"/>
 <path d="M2707 2255 c-17 -17 -52 -21 -42 -5 3 6 1 10 -5 10 -19 0 -5 -25 16 -28 21 -3 63 23 53 33 -4 3 -14 -1 -22 -10z"/>
 <path d="M2264 2163 c33 -37 47 -40 67 -17 20 24 143 13 248 -21 88 -28 111 -27 151 6 24 20 24 20 -19 -1 l-44 -22 -96 32 c-132 44 -199 50 -241 20 l-31 -22 -32 28 -32 29 29 -32z"/>
 </g>
<g id="layer109" fill="#d4c898" stroke="none">
 <path d="M2393 2344 c-24 -9 -43 -22 -43 -29 0 -16 -36 -39 -48 -31 -4 3 -14 1 -22 -4 -12 -8 -12 -10 0 -14 8 -3 29 -6 45 -8 29 -3 29 -3 8 -16 -17 -9 -28 -9 -48 0 -21 9 -29 9 -41 -4 -19 -18 -10 -39 29 -77 l26 -23 31 22 c42 30 110 24 240 -19 93 -32 95 -32 132 -15 32 14 78 66 78 87 0 15 -69 79 -78 73 -17 -10 -52 16 -52 38 0 11 -3 16 -7 13 -3 -4 -12 -2 -20 4 -22 19 -182 21 -230 3z m322 -100 c-23 -17 -57 -15 -63 5 -3 9 2 11 17 6 11 -3 29 -2 38 4 26 14 32 2 8 -15z"/>
 <path d="M1057 593 c15 -3 20 -9 17 -21 -5 -15 -4 -15 5 -2 17 24 13 30 -16 29 -23 -1 -24 -2 -6 -6z"/>
 <path d="M1137 580 c3 -11 7 -20 9 -20 2 0 4 9 4 20 0 11 -4 20 -9 20 -5 0 -7 -9 -4 -20z"/>
 <path d="M1200 593 c8 -3 26 -15 39 -27 l24 -21 -19 27 c-10 15 -28 27 -39 27 -14 0 -16 -2 -5 -6z"/>
 <path d="M1260 591 c0 -4 11 -6 25 -3 14 2 25 6 25 8 0 2 -11 4 -25 4 -14 0 -25 -4 -25 -9z"/>
 <path d="M1330 592 c0 -5 15 -7 33 -4 26 4 30 2 20 -9 -7 -7 -13 -17 -13 -23 0 -11 29 25 30 37 0 4 -16 7 -35 7 -19 0 -35 -4 -35 -8z"/>
 <path d="M1500 596 c0 -2 11 -6 25 -8 13 -3 22 -1 19 3 -5 9 -44 13 -44 5z"/>
 <path d="M1647 593 c67 -3 82 -7 86 -21 3 -12 5 -11 6 6 1 21 -2 22 -86 20 l-88 -2 82 -3z"/>
 <path d="M1766 592 c-3 -5 8 -6 25 -4 16 2 29 6 29 8 0 8 -49 4 -54 -4z"/>
 <path d="M1873 593 c15 -2 37 -2 50 0 12 2 0 4 -28 4 -27 0 -38 -2 -22 -4z"/>
 <path d="M2072 593 c11 -3 15 -11 12 -21 -5 -15 -4 -15 5 -2 16 23 13 30 -11 29 -17 -1 -18 -3 -6 -6z"/>
 <path d="M2147 580 c3 -11 7 -20 9 -20 2 0 4 9 4 20 0 11 -4 20 -9 20 -5 0 -7 -9 -4 -20z"/>
 <path d="M2210 593 c8 -3 26 -15 39 -27 l24 -21 -19 27 c-10 15 -28 27 -39 27 -14 0 -16 -2 -5 -6z"/>
 <path d="M2270 591 c0 -4 11 -6 25 -3 14 2 25 6 25 8 0 2 -11 4 -25 4 -14 0 -25 -4 -25 -9z"/>
 <path d="M2340 592 c0 -5 15 -7 33 -4 26 4 30 2 20 -9 -7 -7 -13 -17 -13 -23 0 -11 29 25 30 37 0 4 -16 7 -35 7 -19 0 -35 -4 -35 -8z"/>
 <path d="M2510 596 c0 -2 11 -6 25 -8 13 -3 22 -1 19 3 -5 9 -44 13 -44 5z"/>
 <path d="M2657 593 c67 -3 82 -7 86 -21 3 -12 5 -11 6 6 1 21 -2 22 -86 20 l-88 -2 82 -3z"/>
 <path d="M2776 592 c-3 -5 8 -6 25 -4 16 2 29 6 29 8 0 8 -49 4 -54 -4z"/>
 <path d="M2883 593 c15 -2 37 -2 50 0 12 2 0 4 -28 4 -27 0 -38 -2 -22 -4z"/>
 <path d="M3067 593 c15 -3 20 -9 17 -21 -5 -15 -4 -15 5 -2 17 24 13 30 -16 29 -23 -1 -24 -2 -6 -6z"/>
 <path d="M3147 580 c3 -11 7 -20 9 -20 2 0 4 9 4 20 0 11 -4 20 -9 20 -5 0 -7 -9 -4 -20z"/>
 <path d="M3210 593 c8 -3 26 -15 39 -27 l24 -21 -19 27 c-10 15 -28 27 -39 27 -14 0 -16 -2 -5 -6z"/>
 <path d="M3270 591 c0 -4 11 -6 25 -3 14 2 25 6 25 8 0 2 -11 4 -25 4 -14 0 -25 -4 -25 -9z"/>
 <path d="M3340 592 c0 -5 15 -7 33 -4 26 4 30 2 20 -9 -7 -7 -13 -17 -13 -23 0 -11 29 25 30 37 0 4 -16 7 -35 7 -19 0 -35 -4 -35 -8z"/>
 <path d="M3510 596 c0 -2 11 -6 25 -8 13 -3 22 -1 19 3 -5 9 -44 13 -44 5z"/>
 <path d="M3662 593 c62 -3 78 -7 81 -21 3 -12 5 -11 6 6 1 21 -2 22 -81 20 l-83 -2 77 -3z"/>
 <path d="M3776 592 c-3 -5 8 -6 25 -4 16 2 29 6 29 8 0 8 -49 4 -54 -4z"/>
 <path d="M3883 593 c15 -2 37 -2 50 0 12 2 0 4 -28 4 -27 0 -38 -2 -22 -4z"/>
 <path d="M1335 561 c-6 -11 13 -26 22 -17 4 3 1 6 -6 6 -7 0 -9 5 -6 10 3 6 4 10 1 10 -3 0 -7 -4 -11 -9z"/>
 <path d="M2345 561 c-6 -11 13 -26 22 -17 4 3 1 6 -6 6 -7 0 -9 5 -6 10 3 6 4 10 1 10 -3 0 -7 -4 -11 -9z"/>
 <path d="M3345 561 c-6 -11 13 -26 22 -17 4 3 1 6 -6 6 -7 0 -9 5 -6 10 3 6 4 10 1 10 -3 0 -7 -4 -11 -9z"/>
 <path d="M1460 546 c0 -8 4 -17 9 -20 5 -4 7 3 4 14 -6 23 -13 26 -13 6z"/>
 </g>
<g id="layer110" fill="#ffffff" stroke="none">
 <path d="M0 2500 l0 -2500 2500 0 2500 0 0 2500 0 2500 -2500 0 -2500 0 0 -2500z m1980 1635 c9 -11 16 -13 24 -5 7 7 169 10 485 10 411 0 477 -2 491 -15 15 -14 18 -14 30 0 11 13 74 15 490 15 449 0 478 -1 493 -18 16 -17 17 -153 17 -1754 0 -1724 0 -1735 -20 -1753 -13 -11 -41 -20 -75 -23 -50 -4 -54 -6 -44 -23 13 -25 -3 -24 -26 1 -26 28 -63 26 -77 -5 -14 -32 -28 -32 -28 0 0 24 -2 25 -76 25 -67 0 -75 -2 -64 -15 17 -20 -7 -20 -34 0 -32 24 -51 18 -65 -20 -14 -41 -31 -38 -31 6 0 35 -11 36 -50 7 -32 -23 -51 -19 -30 7 11 13 9 15 -14 15 -29 0 -31 -3 -16 -31 15 -28 -5 -24 -28 6 -11 14 -27 25 -36 25 -18 0 -22 -15 -6 -25 13 -8 13 -25 1 -25 -5 0 -23 11 -39 25 -17 14 -34 25 -39 25 -5 0 -13 -19 -19 -42 -12 -55 -30 -59 -37 -8 -3 23 -8 44 -11 47 -3 3 -17 -9 -31 -26 -35 -41 -60 -43 -40 -3 14 26 14 27 -18 35 -17 5 -37 13 -43 18 -7 6 -22 4 -40 -6 -16 -8 -48 -15 -72 -15 -40 0 -42 -1 -32 -20 14 -26 -2 -26 -25 0 -26 28 -63 26 -77 -5 -14 -32 -28 -32 -28 0 0 24 -2 25 -76 25 -67 0 -75 -2 -64 -15 17 -20 -7 -20 -34 0 -32 24 -51 18 -65 -20 -14 -41 -31 -38 -31 6 0 35 -11 36 -50 7 -32 -23 -51 -19 -30 7 11 13 9 15 -14 15 -29 0 -31 -3 -16 -31 15 -28 -5 -24 -28 6 -11 14 -27 25 -36 25 -18 0 -22 -15 -6 -25 13 -8 13 -25 1 -25 -5 0 -23 11 -39 25 -17 14 -34 25 -39 25 -5 0 -13 -19 -19 -42 -12 -55 -30 -59 -37 -8 -3 23 -8 44 -11 47 -3 3 -17 -9 -31 -26 -35 -41 -60 -43 -39 -4 14 28 13 28 -21 38 -19 6 -40 16 -46 22 -10 10 -17 9 -31 -4 -10 -9 -42 -18 -73 -21 -50 -4 -54 -6 -44 -23 13 -25 -3 -24 -26 1 -26 28 -63 26 -77 -5 -14 -32 -28 -32 -28 0 0 24 -2 25 -76 25 -67 0 -75 -2 -64 -15 17 -20 -7 -20 -34 0 -32 24 -51 18 -65 -20 -14 -41 -31 -38 -31 6 0 35 -11 36 -50 7 -32 -23 -51 -19 -30 7 11 13 9 15 -14 15 -29 0 -31 -3 -16 -31 15 -28 -5 -24 -28 6 -11 14 -27 25 -36 25 -18 0 -22 -15 -6 -25 13 -8 13 -25 1 -25 -5 0 -23 11 -39 25 -17 14 -34 25 -39 25 -5 0 -13 -19 -19 -42 -12 -55 -30 -59 -37 -8 -3 23 -8 44 -11 47 -3 3 -17 -9 -31 -26 -35 -41 -60 -43 -40 -3 14 26 14 27 -18 35 -17 5 -38 13 -44 19 -18 14 -19 3504 -2 3524 9 11 100 14 489 14 418 0 479 -2 490 -15z"/>
 </g>

</svg>